<svg width="20" height="20" viewBox="0 0 20 20" fill="none" xmlns="http://www.w3.org/2000/svg">
<path d="M13.7893 0.625H6.21073C3.13074 0.625 0.625 3.13074 0.625 6.21073V13.7893C0.625 16.8693 3.13074 19.375 6.21073 19.375H13.7893C16.8693 19.375 19.375 16.8693 19.375 13.7893V6.21073C19.375 3.13074 16.8692 0.625 13.7893 0.625ZM17.4888 13.7893C17.4888 15.8324 15.8324 17.4888 13.7893 17.4888H6.21073C4.16758 17.4888 2.51125 15.8324 2.51125 13.7893V6.21073C2.51125 4.16754 4.16758 2.51125 6.21073 2.51125H13.7893C15.8324 2.51125 17.4888 4.16754 17.4888 6.21073V13.7893Z" fill="white" fill-opacity="0.4"/>
<path d="M10 5C7.243 5 5 7.243 5 9.99998C5 12.757 7.243 15 10 15C12.757 15 15 12.757 15 9.99998C15 7.24297 12.757 5 10 5ZM10 13.0552C8.31266 13.0552 6.94482 11.6874 6.94482 10C6.94482 8.31267 8.31269 6.94483 10 6.94483C11.6873 6.94483 13.0552 8.31267 13.0552 10C13.0552 11.6873 11.6873 13.0552 10 13.0552Z" fill="white" fill-opacity="0.4"/>
<path d="M15.3125 5.625C15.8303 5.625 16.25 5.20527 16.25 4.6875C16.25 4.16973 15.8303 3.75 15.3125 3.75C14.7947 3.75 14.375 4.16973 14.375 4.6875C14.375 5.20527 14.7947 5.625 15.3125 5.625Z" fill="white" fill-opacity="0.4"/>
</svg>
