<svg width="24" height="24" viewBox="0 0 24 24" fill="none" xmlns="http://www.w3.org/2000/svg">
<path fill-rule="evenodd" clip-rule="evenodd" d="M12 23.25C18.2132 23.25 23.25 18.2132 23.25 12C23.25 5.7868 18.2132 0.75 12 0.75C5.7868 0.75 0.75 5.7868 0.75 12C0.75 18.2132 5.7868 23.25 12 23.25ZM4.6829 11.9916C4.42754 12.0916 4.44332 12.4396 4.70679 12.5185L7.07365 13.2273C7.75298 13.4307 8.49279 13.3332 9.08785 12.9617L13.8475 9.9907C13.9411 9.93228 14.0507 9.90115 14.1627 9.90115C14.2904 9.90115 14.3544 10.0476 14.2641 10.1332L10.4487 13.7514C10.2522 13.9377 10.2826 14.2475 10.5119 14.3963L14.72 17.1268C15.17 17.4188 15.7872 17.1643 15.869 16.6531L17.2443 8.05692C17.2858 7.79766 17.0964 7.55606 16.8227 7.51897C16.47 7.4712 16.1103 7.51405 15.7811 7.64304L4.6829 11.9916Z" fill="white" fill-opacity="0.4"/>
</svg>
