<svg width="20" height="20" viewBox="0 0 20 20" fill="none" xmlns="http://www.w3.org/2000/svg">
<path fill-rule="evenodd" clip-rule="evenodd" d="M10 19.375C15.1777 19.375 19.375 15.1777 19.375 10C19.375 4.82233 15.1777 0.625 10 0.625C4.82233 0.625 0.625 4.82233 0.625 10C0.625 15.1777 4.82233 19.375 10 19.375ZM3.90242 9.99297C3.68962 10.0764 3.70276 10.3663 3.92233 10.432L5.8947 11.0227C6.46081 11.1923 7.07733 11.111 7.57321 10.8014L11.5396 8.32558C11.6176 8.2769 11.7089 8.25096 11.8023 8.25096C11.9087 8.25096 11.962 8.37296 11.8867 8.44432L8.70725 11.4595C8.5435 11.6148 8.5688 11.8729 8.75992 11.997L12.2666 14.2723C12.6417 14.5156 13.156 14.3036 13.2242 13.8775L14.3702 6.7141C14.4048 6.49805 14.247 6.29671 14.0189 6.26581C13.725 6.226 13.4253 6.26171 13.1509 6.3692L3.90242 9.99297Z" fill="white" fill-opacity="0.4"/>
</svg>
