<svg width="20" height="20" viewBox="0 0 20 20" fill="none" xmlns="http://www.w3.org/2000/svg">
<path d="M19.8939 14.6963C19.8697 14.644 19.8471 14.6006 19.8262 14.5659C19.4792 13.94 18.8161 13.1717 17.8372 12.2608L17.8166 12.24L17.8062 12.2297L17.7957 12.2193H17.7852C17.341 11.7951 17.0597 11.5099 16.9419 11.3639C16.7263 11.0858 16.678 10.8043 16.7959 10.519C16.8791 10.3035 17.1917 9.84834 17.733 9.15294C18.0178 8.7844 18.2433 8.48903 18.4098 8.26649C19.6109 6.66725 20.1316 5.64532 19.9719 5.20029L19.9098 5.09629C19.8681 5.03368 19.7606 4.9764 19.5872 4.92416C19.4134 4.87204 19.1914 4.86342 18.9206 4.89815L15.9216 4.9189C15.8731 4.90166 15.8037 4.90327 15.7133 4.92416C15.623 4.94506 15.5779 4.95554 15.5779 4.95554L15.5257 4.98166L15.4843 5.01304C15.4495 5.03379 15.4114 5.07028 15.3697 5.12244C15.3282 5.17442 15.2935 5.23543 15.2658 5.30494C14.9393 6.14624 14.5681 6.92844 14.1515 7.65149C13.8946 8.08264 13.6587 8.4563 13.4432 8.77268C13.2281 9.08894 13.0476 9.32196 12.9019 9.47133C12.756 9.62084 12.6244 9.74062 12.5061 9.8311C12.388 9.92162 12.2979 9.95987 12.2355 9.94588C12.173 9.93189 12.1141 9.91801 12.0583 9.90412C11.9612 9.84151 11.8831 9.75636 11.8241 9.6486C11.765 9.54084 11.7252 9.40521 11.7043 9.24182C11.6836 9.07831 11.6714 8.93768 11.6679 8.81943C11.6646 8.70133 11.6661 8.53429 11.6732 8.31877C11.6804 8.10314 11.6836 7.95724 11.6836 7.88075C11.6836 7.6165 11.6888 7.32971 11.6991 7.02031C11.7096 6.71091 11.7181 6.46576 11.7252 6.28516C11.7323 6.10438 11.7356 5.91311 11.7356 5.71147C11.7356 5.50983 11.7233 5.3517 11.6991 5.23692C11.6752 5.1223 11.6384 5.01103 11.59 4.90316C11.5413 4.7954 11.4701 4.71204 11.3766 4.65286C11.2829 4.59376 11.1664 4.54686 11.0277 4.51201C10.6598 4.42861 10.1912 4.3835 9.62183 4.37648C8.33067 4.3626 7.50103 4.44611 7.1331 4.62689C6.98732 4.70327 6.8554 4.80764 6.73745 4.93965C6.61245 5.09267 6.59502 5.17618 6.68525 5.18991C7.10184 5.25241 7.39676 5.40193 7.57033 5.63831L7.63288 5.76356C7.68153 5.85394 7.73012 6.01393 7.77873 6.24334C7.82728 6.47274 7.85861 6.7265 7.87239 7.00449C7.90704 7.51213 7.90704 7.94668 7.87239 8.30817C7.83764 8.66981 7.80481 8.95134 7.77348 9.15298C7.74215 9.35462 7.69532 9.51801 7.63288 9.64313C7.57033 9.76827 7.52871 9.84477 7.50785 9.87253C7.48703 9.90029 7.46967 9.91779 7.45588 9.92465C7.36565 9.95928 7.2718 9.97693 7.17468 9.97693C7.0774 9.97693 6.95945 9.9282 6.82064 9.83081C6.68186 9.73342 6.53783 9.59966 6.38855 9.42928C6.23927 9.25888 6.07091 9.02074 5.88341 8.71485C5.69605 8.40896 5.50165 8.04743 5.30032 7.63027L5.13375 7.32773C5.02962 7.13311 4.88738 6.84972 4.70688 6.47781C4.52627 6.10577 4.36663 5.74588 4.22785 5.39824C4.17237 5.25223 4.08904 5.14107 3.97798 5.06458L3.92586 5.0332C3.89121 5.00544 3.83559 4.97596 3.75929 4.94455C3.68288 4.91317 3.60315 4.89067 3.51977 4.87682L0.66657 4.89757C0.37501 4.89757 0.177183 4.96372 0.0730178 5.09585L0.0313298 5.15835C0.0105041 5.19316 0 5.24876 0 5.32529C0 5.40178 0.0208258 5.49566 0.0625138 5.60682C0.479029 6.58726 0.93198 7.53281 1.42137 8.44362C1.91075 9.35444 2.33602 10.0881 2.69692 10.644C3.05789 11.2003 3.42582 11.7254 3.80072 12.2189C4.17562 12.7125 4.42378 13.0289 4.5452 13.1679C4.66676 13.3072 4.76224 13.4113 4.83165 13.4808L5.09203 13.731C5.25863 13.8979 5.50329 14.0978 5.82611 14.3307C6.149 14.5637 6.50646 14.7931 6.89869 15.0193C7.29099 15.2451 7.74737 15.4293 8.26808 15.5718C8.78873 15.7145 9.29548 15.7717 9.7884 15.7441H10.9859C11.2288 15.7231 11.4128 15.6466 11.5379 15.5146L11.5793 15.4623C11.6072 15.4208 11.6333 15.3563 11.6573 15.2696C11.6817 15.1827 11.6938 15.0869 11.6938 14.9828C11.6867 14.6839 11.7094 14.4145 11.7613 14.1746C11.8132 13.9348 11.8724 13.7541 11.9386 13.6323C12.0047 13.5107 12.0793 13.408 12.1624 13.3248C12.2456 13.2414 12.3049 13.1909 12.3397 13.1735C12.3743 13.156 12.4019 13.1441 12.4227 13.137C12.5893 13.0814 12.7854 13.1353 13.0112 13.2988C13.2369 13.4622 13.4485 13.6639 13.6465 13.9037C13.8444 14.1437 14.0821 14.413 14.3597 14.7119C14.6375 15.0109 14.8804 15.2332 15.0886 15.3794L15.2968 15.5046C15.4358 15.5881 15.6163 15.6646 15.8385 15.7341C16.0603 15.8036 16.2546 15.8209 16.4215 15.7862L19.0872 15.7446C19.3508 15.7446 19.556 15.7008 19.7015 15.6141C19.8473 15.5272 19.9339 15.4314 19.9619 15.3273C19.9897 15.223 19.9912 15.1048 19.9672 14.9725C19.9425 14.8406 19.9181 14.7484 19.8939 14.6963Z" fill="white" fill-opacity="0.4"/>
</svg>
