<svg width="20" height="20" viewBox="0 0 20 20" fill="none" xmlns="http://www.w3.org/2000/svg">
<path fill-rule="evenodd" clip-rule="evenodd" d="M2.49186 4.06036C2.75546 3.6239 4.20783 2.03639 5.24427 2.08431C5.55408 2.10999 5.82795 2.29741 6.05047 2.51478C6.56141 3.01372 8.02406 4.90076 8.10707 5.29786C8.30905 6.27176 7.14852 6.83317 7.5037 7.81478C8.40919 10.0305 9.9694 11.5906 12.186 12.4952C13.1668 12.8503 13.7283 11.6899 14.7022 11.8927C15.0985 11.9757 16.9865 13.4383 17.4854 13.9492C17.702 14.1708 17.8903 14.4455 17.9159 14.7553C17.9544 15.8465 16.2684 17.3193 15.9398 17.5076C15.1644 18.0622 14.1528 18.0528 12.9195 17.4794C9.47814 16.0476 3.97847 10.6518 2.5201 7.0805C1.96209 5.85413 1.92358 4.83572 2.49186 4.06036Z" stroke="#E15354" stroke-width="1.5" stroke-linecap="round" stroke-linejoin="round"/>
</svg>
