<svg width="24" height="24" viewBox="0 0 24 24" fill="none" xmlns="http://www.w3.org/2000/svg">
<path d="M12 2.25C10.7812 2.25 9.64844 2.55469 8.60156 3.16406C7.58594 3.77344 6.77344 4.58594 6.16406 5.60156C5.55469 6.64844 5.25 7.78125 5.25 9C5.25 9.48438 5.34375 10.0469 5.53125 10.6875C5.6875 11.2188 5.92969 11.8516 6.25781 12.5859C6.78906 13.7891 7.48438 15.1328 8.34375 16.6172C8.96875 17.7109 9.66406 18.8359 10.4297 19.9922C10.8203 20.5859 11.1406 21.0625 11.3906 21.4219L12 22.3125L13.5703 19.9922C14.3359 18.8359 15.0312 17.7109 15.6562 16.6172C16.5156 15.1328 17.2109 13.7891 17.7422 12.5859C18.0703 11.8516 18.3125 11.2188 18.4688 10.6875C18.6562 10.0469 18.75 9.48438 18.75 9C18.75 7.78125 18.4453 6.64844 17.8359 5.60156C17.2266 4.58594 16.4141 3.77344 15.3984 3.16406C14.3516 2.55469 13.2188 2.25 12 2.25ZM12 3.75C12.9531 3.75 13.8281 3.98438 14.625 4.45312C15.4375 4.92188 16.0781 5.5625 16.5469 6.375C17.0156 7.17188 17.25 8.04688 17.25 9C17.25 9.29688 17.1719 9.71875 17.0156 10.2656C16.8594 10.7969 16.6484 11.3672 16.3828 11.9766C15.9297 13.0078 15.25 14.3047 14.3438 15.8672C13.5781 17.1797 12.8125 18.4141 12.0469 19.5703L12 19.6172L11.9531 19.5703C11.1875 18.4141 10.4219 17.1797 9.65625 15.8672C8.75 14.3047 8.07031 13.0078 7.61719 11.9766C7.35156 11.3672 7.14062 10.7969 6.98438 10.2656C6.82812 9.71875 6.75 9.29688 6.75 9C6.75 8.04688 6.98438 7.17188 7.45312 6.375C7.92188 5.5625 8.55469 4.92188 9.35156 4.45312C10.1641 3.98438 11.0469 3.75 12 3.75ZM12 7.5C11.5781 7.5 11.2188 7.64844 10.9219 7.94531C10.6406 8.22656 10.5 8.57812 10.5 9C10.5 9.42188 10.6406 9.78125 10.9219 10.0781C11.2188 10.3594 11.5781 10.5 12 10.5C12.4219 10.5 12.7734 10.3594 13.0547 10.0781C13.3516 9.78125 13.5 9.42188 13.5 9C13.5 8.57812 13.3516 8.22656 13.0547 7.94531C12.7734 7.64844 12.4219 7.5 12 7.5Z" fill="#E15354"/>
</svg>
