<svg width="20" height="20" viewBox="0 0 20 20" fill="none" xmlns="http://www.w3.org/2000/svg">
<path d="M10 1.875C8.98437 1.875 8.04036 2.12891 7.16797 2.63672C6.32161 3.14453 5.64453 3.82161 5.13672 4.66797C4.62891 5.54036 4.375 6.48437 4.375 7.5C4.375 7.90365 4.45312 8.3724 4.60937 8.90625C4.73958 9.34896 4.94141 9.8763 5.21484 10.4883C5.65755 11.4909 6.23698 12.6107 6.95312 13.8477C7.47396 14.7591 8.05339 15.6966 8.69141 16.6602C9.01693 17.1549 9.28385 17.5521 9.49219 17.8516L10 18.5937L11.3086 16.6602C11.9466 15.6966 12.526 14.7591 13.0469 13.8477C13.763 12.6107 14.3424 11.4909 14.7852 10.4883C15.0586 9.8763 15.2604 9.34896 15.3906 8.90625C15.5469 8.3724 15.625 7.90365 15.625 7.5C15.625 6.48437 15.3711 5.54036 14.8633 4.66797C14.3555 3.82161 13.6784 3.14453 12.832 2.63672C11.9596 2.12891 11.0156 1.875 10 1.875ZM10 3.125C10.7943 3.125 11.5234 3.32031 12.1875 3.71094C12.8646 4.10156 13.3984 4.63542 13.7891 5.3125C14.1797 5.97656 14.375 6.70573 14.375 7.5C14.375 7.7474 14.3099 8.09896 14.1797 8.55469C14.0495 8.9974 13.8737 9.47266 13.6523 9.98047C13.2747 10.8398 12.7083 11.9206 11.9531 13.2227C11.3151 14.3164 10.6771 15.3451 10.0391 16.3086L10 16.3477L9.96094 16.3086C9.32292 15.3451 8.6849 14.3164 8.04687 13.2227C7.29167 11.9206 6.72526 10.8398 6.34766 9.98047C6.1263 9.47266 5.95052 8.9974 5.82031 8.55469C5.6901 8.09896 5.625 7.7474 5.625 7.5C5.625 6.70573 5.82031 5.97656 6.21094 5.3125C6.60156 4.63542 7.12891 4.10156 7.79297 3.71094C8.47005 3.32031 9.20573 3.125 10 3.125ZM10 6.25C9.64844 6.25 9.34896 6.3737 9.10156 6.62109C8.86719 6.85547 8.75 7.14844 8.75 7.5C8.75 7.85156 8.86719 8.15104 9.10156 8.39844C9.34896 8.63281 9.64844 8.75 10 8.75C10.3516 8.75 10.6445 8.63281 10.8789 8.39844C11.1263 8.15104 11.25 7.85156 11.25 7.5C11.25 7.14844 11.1263 6.85547 10.8789 6.62109C10.6445 6.3737 10.3516 6.25 10 6.25Z" fill="#E15354"/>
</svg>
