<svg width="40" height="40" viewBox="0 0 40 40" fill="none" xmlns="http://www.w3.org/2000/svg">
<rect width="40" height="40" rx="10" fill="white"/>
<rect width="40" height="40" rx="10" fill="#EE8208" fill-opacity="0.2"/>
<path d="M19.0778 23.5389C17.6254 23.3964 16.3158 23.0599 15.1946 22.2349C15.0555 22.1323 14.9119 22.0333 14.7849 21.9187C14.2942 21.4753 14.2447 20.9674 14.633 20.4441C14.9652 19.9962 15.5229 19.8764 16.1025 20.1336C16.2148 20.1834 16.3217 20.2456 16.4241 20.3125C18.5136 21.6632 21.3841 21.7005 23.4815 20.3732C23.6893 20.2233 23.9114 20.1011 24.1689 20.0387C24.6694 19.9178 25.1362 20.0907 25.4048 20.5028C25.7117 20.9733 25.7078 21.4326 25.3297 21.798C24.7497 22.358 24.0521 22.7632 23.2771 23.0461C22.5442 23.3134 21.7414 23.4479 20.947 23.5373C21.0668 23.6601 21.1234 23.7204 21.1983 23.7913C22.2771 24.8111 23.3606 25.8266 24.4359 26.8494C24.8023 27.198 24.8788 27.6301 24.6771 28.0355C24.4565 28.4786 23.9628 28.7701 23.4788 28.7389C23.1721 28.7189 22.9329 28.5753 22.7204 28.3739C21.9063 27.6032 21.0769 26.8467 20.2792 26.0614C20.0471 25.833 19.9354 25.8762 19.7306 26.0745C18.9116 26.8677 18.0792 27.6488 17.242 28.4254C16.866 28.7741 16.4186 28.8369 15.9826 28.6377C15.5192 28.4263 15.2242 27.9812 15.247 27.5339C15.2627 27.2314 15.4209 27.0003 15.6416 26.793C16.7092 25.79 17.7739 24.7845 18.839 23.7799C18.9094 23.713 18.9752 23.6421 19.0778 23.5389Z" fill="#EE8208"/>
<path d="M19.9633 20C17.2275 19.9912 14.9841 17.8677 15.0001 15.3021C15.0158 12.7082 17.2606 10.6178 20.0234 10.625C22.7918 10.632 25.0138 12.7524 24.9999 15.3733C24.9858 17.9337 22.7269 20.0089 19.9633 20ZM22.4497 15.3083C22.445 14.0344 21.3614 13.0203 20.0035 13.0191C18.6343 13.0178 17.541 14.0504 17.5515 15.3359C17.5617 16.6049 18.6546 17.6119 20.0162 17.6072C21.3736 17.6027 22.4543 16.582 22.4497 15.3083Z" fill="#EE8208"/>
</svg>
