<svg width="40" height="40" viewBox="0 0 40 40" fill="none" xmlns="http://www.w3.org/2000/svg">
<rect width="40" height="40" rx="10" fill="white"/>
<rect width="40" height="40" rx="10" fill="#419FD9" fill-opacity="0.2"/>
<path fill-rule="evenodd" clip-rule="evenodd" d="M20 29.375C25.1777 29.375 29.375 25.1777 29.375 20C29.375 14.8223 25.1777 10.625 20 10.625C14.8223 10.625 10.625 14.8223 10.625 20C10.625 25.1777 14.8223 29.375 20 29.375ZM13.9024 19.993C13.6896 20.0764 13.7028 20.3663 13.9223 20.432L15.8947 21.0227C16.4608 21.1923 17.0773 21.111 17.5732 20.8014L21.5396 18.3256C21.6176 18.2769 21.7089 18.251 21.8023 18.251C21.9087 18.251 21.962 18.373 21.8867 18.4443L18.7072 21.4595C18.5435 21.6148 18.5688 21.8729 18.7599 21.997L22.2666 24.2723C22.6417 24.5156 23.156 24.3036 23.2242 23.8775L24.3702 16.7141C24.4048 16.4981 24.247 16.2967 24.0189 16.2658C23.725 16.226 23.4253 16.2617 23.1509 16.3692L13.9024 19.993Z" fill="#419FD9"/>
</svg>
