<svg width="20" height="20" viewBox="0 0 20 20" fill="none" xmlns="http://www.w3.org/2000/svg">
<path d="M10 2.5C8.64583 2.5 7.38281 2.84505 6.21094 3.53516C5.07812 4.1862 4.1862 5.07812 3.53516 6.21094C2.84505 7.38281 2.5 8.64583 2.5 10C2.5 11.3542 2.84505 12.6172 3.53516 13.7891C4.1862 14.9219 5.07812 15.8203 6.21094 16.4844C7.38281 17.1615 8.64583 17.5 10 17.5C11.3542 17.5 12.6172 17.1615 13.7891 16.4844C14.9219 15.8203 15.8203 14.9219 16.4844 13.7891C17.1615 12.6172 17.5 11.3542 17.5 10C17.5 8.64583 17.1615 7.38281 16.4844 6.21094C15.8203 5.07812 14.9219 4.1862 13.7891 3.53516C12.6172 2.84505 11.3542 2.5 10 2.5ZM10 3.75C11.1328 3.75 12.1875 4.03646 13.1641 4.60937C14.1016 5.15625 14.8437 5.89844 15.3906 6.83594C15.9635 7.8125 16.25 8.86719 16.25 10C16.25 11.1328 15.9635 12.1875 15.3906 13.1641C14.8437 14.1016 14.1016 14.8437 13.1641 15.3906C12.1875 15.9635 11.1328 16.25 10 16.25C8.86719 16.25 7.8125 15.9635 6.83594 15.3906C5.89844 14.8437 5.15625 14.1016 4.60937 13.1641C4.03646 12.1875 3.75 11.1328 3.75 10C3.75 8.86719 4.03646 7.8125 4.60937 6.83594C5.15625 5.89844 5.89844 5.15625 6.83594 4.60937C7.8125 4.03646 8.86719 3.75 10 3.75ZM9.375 5V10.625H13.75V9.375H10.625V5H9.375Z" fill="#E15354"/>
</svg>
