<svg width="24" height="24" viewBox="0 0 24 24" fill="none" xmlns="http://www.w3.org/2000/svg">
<path d="M12 3C10.375 3 8.85938 3.41406 7.45312 4.24219C6.09375 5.02344 5.02344 6.09375 4.24219 7.45312C3.41406 8.85938 3 10.375 3 12C3 13.625 3.41406 15.1406 4.24219 16.5469C5.02344 17.9062 6.09375 18.9844 7.45312 19.7812C8.85938 20.5938 10.375 21 12 21C13.625 21 15.1406 20.5938 16.5469 19.7812C17.9062 18.9844 18.9844 17.9062 19.7812 16.5469C20.5938 15.1406 21 13.625 21 12C21 10.375 20.5938 8.85938 19.7812 7.45312C18.9844 6.09375 17.9062 5.02344 16.5469 4.24219C15.1406 3.41406 13.625 3 12 3ZM12 4.5C13.3594 4.5 14.625 4.84375 15.7969 5.53125C16.9219 6.1875 17.8125 7.07812 18.4688 8.20312C19.1562 9.375 19.5 10.6406 19.5 12C19.5 13.3594 19.1562 14.625 18.4688 15.7969C17.8125 16.9219 16.9219 17.8125 15.7969 18.4688C14.625 19.1562 13.3594 19.5 12 19.5C10.6406 19.5 9.375 19.1562 8.20312 18.4688C7.07812 17.8125 6.1875 16.9219 5.53125 15.7969C4.84375 14.625 4.5 13.3594 4.5 12C4.5 10.6406 4.84375 9.375 5.53125 8.20312C6.1875 7.07812 7.07812 6.1875 8.20312 5.53125C9.375 4.84375 10.6406 4.5 12 4.5ZM11.25 6V12.75H16.5V11.25H12.75V6H11.25Z" fill="#E15354"/>
</svg>
