<svg width="40" height="40" viewBox="0 0 40 40" fill="none" xmlns="http://www.w3.org/2000/svg">
<rect width="40" height="40" rx="10" fill="white"/>
<rect width="40" height="40" rx="10" fill="#675DA9" fill-opacity="0.2"/>
<path d="M27.4585 11.9513C26.9624 11.4951 24.9536 10.0346 20.476 10.0146C20.476 10.0146 15.1981 9.69445 12.6251 12.0553C11.1926 13.4878 10.6884 15.5806 10.6364 18.1816C10.5844 20.7785 10.5164 25.6483 15.2101 26.9688H15.2141L15.2101 28.9815C15.2101 28.9815 15.1821 29.7978 15.7183 29.9619C16.3665 30.1619 16.7506 29.5417 17.3709 28.8735C17.711 28.5053 18.1792 27.9691 18.5353 27.557C21.7445 27.8251 24.2134 27.2089 24.4935 27.1168C25.1417 26.9047 28.811 26.4366 29.4073 21.5668C30.0235 16.557 29.1072 13.3838 27.4585 11.9513ZM28.0027 21.2147C27.4986 25.2802 24.5255 25.5362 23.9773 25.7123C23.7452 25.7883 21.5764 26.3285 18.8474 26.1485C18.8474 26.1485 16.8147 28.6014 16.1824 29.2376C16.0824 29.3376 15.9663 29.3777 15.8903 29.3576C15.7823 29.3296 15.7503 29.2016 15.7543 29.0135C15.7543 28.7414 15.7703 25.6643 15.7703 25.6643C15.7663 25.6643 15.7663 25.6643 15.7703 25.6643C11.7968 24.5639 12.0289 20.4184 12.0729 18.2496C12.1169 16.0808 12.5251 14.3001 13.7375 13.1037C15.9103 11.135 20.396 11.4271 20.396 11.4271C24.1813 11.4431 25.994 12.5835 26.4142 12.9636C27.8107 14.1641 28.5229 17.0251 28.0027 21.2147Z" fill="#675DA9"/>
<path d="M22.3207 18.3256C22.1886 18.3256 22.0766 18.2216 22.0686 18.0855C22.0246 17.2252 21.6204 16.8051 20.7961 16.761C20.6561 16.753 20.548 16.633 20.556 16.4929C20.564 16.3529 20.6841 16.2449 20.8241 16.2529C21.9125 16.3129 22.5208 16.9371 22.5768 18.0575C22.5848 18.1976 22.4767 18.3176 22.3367 18.3216C22.3287 18.3256 22.3247 18.3256 22.3207 18.3256Z" fill="#675DA9"/>
<path d="M23.6171 18.7579H23.6131C23.4731 18.7539 23.361 18.6378 23.3651 18.4978C23.3851 17.6335 23.137 16.9332 22.6088 16.357C22.0846 15.7808 21.3603 15.4687 20.404 15.4006C20.2639 15.3886 20.1599 15.2686 20.1719 15.1285C20.1839 14.9885 20.3039 14.8844 20.444 14.8965C21.5244 14.9765 22.3767 15.3526 22.9849 16.0169C23.5971 16.6851 23.8932 17.5214 23.8732 18.5098C23.8692 18.6498 23.7532 18.7579 23.6171 18.7579Z" fill="#675DA9"/>
<path d="M24.9456 19.2779C24.8056 19.2779 24.6935 19.1659 24.6935 19.0258C24.6815 17.4773 24.2374 16.2968 23.333 15.4125C22.4407 14.5402 21.3083 14.096 19.9758 14.084C19.8358 14.084 19.7237 13.968 19.7237 13.8279C19.7237 13.6879 19.8398 13.5758 19.9758 13.5758C21.4443 13.5879 22.6928 14.08 23.6812 15.0484C24.6735 16.0167 25.1817 17.3532 25.1977 19.0178C25.2017 19.1619 25.0897 19.2779 24.9456 19.2779C24.9496 19.2779 24.9496 19.2779 24.9456 19.2779Z" fill="#675DA9"/>
<path d="M20.8561 21.4587C20.8561 21.4587 21.2123 21.4907 21.4043 21.2546L21.7765 20.7865C21.9565 20.5544 22.3927 20.4063 22.8169 20.6424C23.0529 20.7745 23.4811 21.0386 23.7452 21.2346C24.0293 21.4427 24.6055 21.9229 24.6095 21.9269C24.8856 22.159 24.9496 22.4991 24.7616 22.8632C24.7616 22.8632 24.7616 22.8672 24.7616 22.8712C24.5695 23.2113 24.3094 23.5315 23.9853 23.8276C23.9813 23.8276 23.9813 23.8316 23.9773 23.8316C23.7092 24.0557 23.4451 24.1837 23.189 24.2117C23.157 24.2197 23.121 24.2197 23.0729 24.2197C22.9609 24.2197 22.8489 24.2037 22.7368 24.1677L22.7288 24.1557C22.3287 24.0437 21.6644 23.7635 20.56 23.1513C19.8398 22.7552 19.2435 22.351 18.7354 21.9469C18.4673 21.7348 18.1952 21.4987 17.9151 21.2186C17.9071 21.2106 17.8951 21.1986 17.887 21.1906C17.879 21.1826 17.867 21.1706 17.859 21.1626C17.851 21.1546 17.839 21.1426 17.831 21.1346C17.823 21.1266 17.811 21.1146 17.803 21.1066C17.5269 20.8265 17.2868 20.5544 17.0748 20.2863C16.6706 19.7821 16.2665 19.1819 15.8703 18.4616C15.2581 17.3532 14.978 16.689 14.8659 16.2928L14.8539 16.2848C14.8179 16.1728 14.8019 16.0607 14.8019 15.9487C14.8019 15.9007 14.8019 15.8647 14.8099 15.8326C14.8419 15.5726 14.97 15.3125 15.1901 15.0444C15.1901 15.0404 15.1941 15.0404 15.1941 15.0364C15.4902 14.7082 15.8103 14.4521 16.1504 14.2601C16.1504 14.2601 16.1544 14.2601 16.1584 14.2601C16.5185 14.072 16.8587 14.136 17.0948 14.4121C17.0948 14.4121 17.5789 14.9923 17.787 15.2764C17.9831 15.5445 18.2472 15.9687 18.3792 16.2048C18.6153 16.6289 18.4673 17.0651 18.2352 17.2452L17.767 17.6173C17.5309 17.8094 17.5629 18.1655 17.5629 18.1655C17.5629 18.1655 18.2552 20.7985 20.8561 21.4587Z" fill="#675DA9"/>
</svg>
