<svg width="40" height="40" viewBox="0 0 40 40" fill="none" xmlns="http://www.w3.org/2000/svg">
<rect width="40" height="40" rx="10" fill="#436EAB" fill-opacity="0.2"/>
<path d="M29.8939 24.6963C29.8697 24.644 29.8471 24.6006 29.8262 24.5659C29.4792 23.94 28.8161 23.1717 27.8372 22.2608L27.8166 22.24L27.8062 22.2297L27.7957 22.2193H27.7852C27.341 21.7951 27.0597 21.5099 26.9419 21.3639C26.7263 21.0858 26.678 20.8043 26.7959 20.519C26.8791 20.3035 27.1917 19.8483 27.733 19.1529C28.0178 18.7844 28.2433 18.489 28.4098 18.2665C29.6109 16.6673 30.1316 15.6453 29.9719 15.2003L29.9098 15.0963C29.8681 15.0337 29.7606 14.9764 29.5872 14.9242C29.4134 14.872 29.1914 14.8634 28.9206 14.8982L25.9216 14.9189C25.8731 14.9017 25.8037 14.9033 25.7133 14.9242C25.623 14.9451 25.5779 14.9555 25.5779 14.9555L25.5257 14.9817L25.4843 15.013C25.4495 15.0338 25.4114 15.0703 25.3697 15.1224C25.3282 15.1744 25.2935 15.2354 25.2658 15.3049C24.9393 16.1462 24.5681 16.9284 24.1515 17.6515C23.8946 18.0826 23.6587 18.4563 23.4432 18.7727C23.2281 19.0889 23.0476 19.322 22.9019 19.4713C22.756 19.6208 22.6244 19.7406 22.5061 19.8311C22.388 19.9216 22.2979 19.9599 22.2355 19.9459C22.173 19.9319 22.1141 19.918 22.0583 19.9041C21.9612 19.8415 21.883 19.7564 21.8241 19.6486C21.765 19.5408 21.7252 19.4052 21.7043 19.2418C21.6836 19.0783 21.6714 18.9377 21.6679 18.8194C21.6646 18.7013 21.6661 18.5343 21.6732 18.3188C21.6804 18.1031 21.6836 17.9572 21.6836 17.8807C21.6836 17.6165 21.6888 17.3297 21.6991 17.0203C21.7096 16.7109 21.7181 16.4658 21.7252 16.2852C21.7323 16.1044 21.7356 15.9131 21.7356 15.7115C21.7356 15.5098 21.7233 15.3517 21.6991 15.2369C21.6752 15.1223 21.6384 15.011 21.59 14.9032C21.5413 14.7954 21.4701 14.712 21.3766 14.6529C21.2829 14.5938 21.1664 14.5469 21.0277 14.512C20.6598 14.4286 20.1912 14.3835 19.6218 14.3765C18.3307 14.3626 17.501 14.4461 17.1331 14.6269C16.9873 14.7033 16.8554 14.8076 16.7374 14.9397C16.6125 15.0927 16.595 15.1762 16.6853 15.1899C17.1018 15.2524 17.3968 15.4019 17.5703 15.6383L17.6329 15.7636C17.6815 15.8539 17.7301 16.0139 17.7787 16.2433C17.8273 16.4727 17.8586 16.7265 17.8724 17.0045C17.907 17.5121 17.907 17.9467 17.8724 18.3082C17.8376 18.6698 17.8048 18.9513 17.7735 19.153C17.7422 19.3546 17.6953 19.518 17.6329 19.6431C17.5703 19.7683 17.5287 19.8448 17.5079 19.8725C17.487 19.9003 17.4697 19.9178 17.4559 19.9247C17.3656 19.9593 17.2718 19.9769 17.1747 19.9769C17.0774 19.9769 16.9595 19.9282 16.8206 19.8308C16.6819 19.7334 16.5378 19.5997 16.3885 19.4293C16.2393 19.2589 16.0709 19.0207 15.8834 18.7149C15.696 18.409 15.5016 18.0474 15.3003 17.6303L15.1338 17.3277C15.0296 17.1331 14.8874 16.8497 14.7069 16.4778C14.5263 16.1058 14.3666 15.7459 14.2278 15.3982C14.1724 15.2522 14.089 15.1411 13.978 15.0646L13.9259 15.0332C13.8912 15.0054 13.8356 14.976 13.7593 14.9445C13.6829 14.9132 13.6031 14.8907 13.5198 14.8768L10.6666 14.8976C10.375 14.8976 10.1772 14.9637 10.073 15.0958L10.0313 15.1584C10.0105 15.1932 10 15.2488 10 15.3253C10 15.4018 10.0208 15.4957 10.0625 15.6068C10.479 16.5873 10.932 17.5328 11.4214 18.4436C11.9108 19.3544 12.336 20.0881 12.6969 20.644C13.0579 21.2003 13.4258 21.7254 13.8007 22.2189C14.1756 22.7125 14.4238 23.0289 14.5452 23.1679C14.6668 23.3072 14.7622 23.4113 14.8317 23.4808L15.092 23.731C15.2586 23.8979 15.5033 24.0978 15.8261 24.3307C16.149 24.5637 16.5065 24.7931 16.8987 25.0193C17.291 25.2451 17.7474 25.4293 18.2681 25.5718C18.7887 25.7145 19.2955 25.7717 19.7884 25.7441H20.9859C21.2288 25.7231 21.4128 25.6466 21.5379 25.5146L21.5793 25.4623C21.6072 25.4208 21.6333 25.3563 21.6573 25.2696C21.6817 25.1827 21.6938 25.0869 21.6938 24.9828C21.6867 24.6839 21.7094 24.4145 21.7613 24.1746C21.8132 23.9348 21.8724 23.7541 21.9386 23.6323C22.0047 23.5107 22.0793 23.408 22.1624 23.3248C22.2456 23.2414 22.3049 23.1909 22.3397 23.1735C22.3743 23.156 22.4019 23.1441 22.4227 23.137C22.5893 23.0814 22.7854 23.1353 23.0112 23.2988C23.2369 23.4622 23.4485 23.6639 23.6465 23.9037C23.8444 24.1437 24.0821 24.413 24.3597 24.7119C24.6375 25.0109 24.8804 25.2332 25.0886 25.3794L25.2968 25.5046C25.4358 25.5881 25.6163 25.6646 25.8385 25.7341C26.0603 25.8036 26.2546 25.8209 26.4215 25.7862L29.0872 25.7446C29.3508 25.7446 29.556 25.7008 29.7015 25.6141C29.8473 25.5272 29.9339 25.4314 29.9619 25.3273C29.9897 25.223 29.9912 25.1048 29.9672 24.9725C29.9425 24.8406 29.9181 24.7484 29.8939 24.6963Z" fill="#436EAB"/>
</svg>
