<svg width="40" height="40" viewBox="0 0 40 40" fill="none" xmlns="http://www.w3.org/2000/svg">
<rect width="40" height="40" rx="10" fill="white"/>
<rect width="40" height="40" rx="10" fill="#0DC143" fill-opacity="0.2"/>
<path d="M26.6672 13.3615C24.9302 11.5878 22.529 10.625 20.0766 10.625C14.8655 10.625 10.6761 14.8311 10.7272 19.9493C10.7272 21.5709 11.187 23.1419 11.9533 24.5608L10.625 29.375L15.5807 28.1081C16.9601 28.8682 18.4928 29.223 20.0255 29.223C25.1856 29.223 29.375 25.0169 29.375 19.8986C29.375 17.4155 28.4043 15.0845 26.6672 13.3615ZM20.0766 27.652C18.6972 27.652 17.3178 27.2973 16.1427 26.5878L15.8362 26.4358L12.873 27.1959L13.6393 24.3074L13.4349 24.0034C11.187 20.4054 12.2599 15.6419 15.9384 13.4122C19.6168 11.1824 24.3682 12.2466 26.6161 15.8953C28.8641 19.5439 27.7912 24.2568 24.1127 26.4865C22.9377 27.2466 21.5072 27.652 20.0766 27.652ZM24.5725 22.027L24.0106 21.7736C24.0106 21.7736 23.1931 21.4189 22.6822 21.1655C22.6311 21.1655 22.58 21.1149 22.529 21.1149C22.3757 21.1149 22.2735 21.1655 22.1713 21.2162C22.1713 21.2162 22.1202 21.2669 21.405 22.0777C21.3539 22.1791 21.2517 22.2297 21.1495 22.2297H21.0984C21.0473 22.2297 20.9452 22.1791 20.8941 22.1284L20.6386 22.027C20.0766 21.7736 19.5657 21.4696 19.157 21.0642C19.0548 20.9628 18.9016 20.8615 18.7994 20.7601C18.4418 20.4054 18.0841 20 17.8287 19.5439L17.7776 19.4426C17.7265 19.3919 17.7265 19.3412 17.6754 19.2399C17.6754 19.1385 17.6754 19.0372 17.7265 18.9865C17.7265 18.9865 17.9309 18.7331 18.0841 18.5811C18.1863 18.4797 18.2374 18.3277 18.3396 18.2264C18.4418 18.0743 18.4928 17.8716 18.4418 17.7196C18.3907 17.4662 17.7776 16.098 17.6243 15.7939C17.5221 15.6419 17.42 15.5912 17.2667 15.5405H17.1134C17.0112 15.5405 16.858 15.5405 16.7047 15.5405C16.6025 15.5405 16.5003 15.5912 16.3982 15.5912L16.3471 15.6419C16.2449 15.6926 16.1427 15.7939 16.0405 15.8446C15.9384 15.9459 15.8873 16.0473 15.7851 16.1486C15.4275 16.6047 15.2231 17.1622 15.2231 17.7196C15.2231 18.125 15.3253 18.5304 15.4785 18.8851L15.5296 19.0372C15.9894 20 16.6025 20.8615 17.42 21.6216L17.6243 21.8243C17.7776 21.9764 17.9309 22.0777 18.033 22.2297C19.1059 23.1419 20.3321 23.8007 21.7115 24.1554C21.8648 24.2061 22.0691 24.2061 22.2224 24.2568C22.3757 24.2568 22.58 24.2568 22.7333 24.2568C22.9888 24.2568 23.2953 24.1554 23.4997 24.0541C23.6529 23.9527 23.7551 23.9527 23.8573 23.8514L23.9595 23.75C24.0616 23.6486 24.1638 23.598 24.266 23.4966C24.3682 23.3953 24.4704 23.2939 24.5215 23.1926C24.6236 22.9899 24.6747 22.7365 24.7258 22.4831C24.7258 22.3818 24.7258 22.2297 24.7258 22.1284C24.7258 22.1284 24.6747 22.0777 24.5725 22.027Z" fill="#0DC143"/>
</svg>
