<svg width="32" height="32" viewBox="0 0 32 32" fill="none" xmlns="http://www.w3.org/2000/svg">
<circle cx="16" cy="16" r="16" fill="white"/>
<circle cx="16" cy="16" r="15.5" stroke="#600082" stroke-opacity="0.16"/>
<path d="M16.5682 19.8182C16.5739 21.1307 17.3977 22.2386 18.9375 22.2386C20.4602 22.2386 21.2955 21.1307 21.2955 19.8182V19.2045C21.2955 17.8864 20.483 16.7841 18.9375 16.7841C17.4205 16.7841 16.5739 17.892 16.5682 19.2045V19.8182ZM10.7159 13.1591C10.7159 14.4716 11.5455 15.5795 13.0852 15.5795C14.6023 15.5795 15.4432 14.4773 15.4375 13.1591V12.5455C15.4432 11.2273 14.625 10.125 13.0852 10.125C11.5739 10.125 10.7159 11.2273 10.7159 12.5455V13.1591ZM11.1932 22H12.5511L20.5511 10.3636H19.1932L11.1932 22ZM17.892 19.2045C17.8977 18.5511 18.1818 17.9205 18.9375 17.9205C19.7216 17.9205 19.9659 18.5511 19.9659 19.2045V19.8182C19.9659 20.4716 19.6989 21.1023 18.9375 21.1023C18.1648 21.1023 17.8977 20.4659 17.892 19.8182V19.2045ZM12.0455 12.5455C12.0455 11.8977 12.3295 11.2614 13.0852 11.2614C13.8693 11.2614 14.1136 11.892 14.1136 12.5455V13.1591C14.1136 13.8125 13.8466 14.4432 13.0852 14.4432C12.3125 14.4432 12.0455 13.8125 12.0455 13.1591V12.5455Z" fill="#E34339"/>
</svg>
