<svg width="32" height="32" viewBox="0 0 32 32" fill="none" xmlns="http://www.w3.org/2000/svg">
<circle cx="16" cy="16" r="16" fill="white"/>
<circle cx="16" cy="16" r="15.5" stroke="#600082" stroke-opacity="0.16"/>
<path d="M10.1826 20H11.2799V16.8288H14.9056V20H16.0065V12.7273H14.9056V15.8878H11.2799V12.7273H10.1826V20ZM17.3192 20H18.381V14.5455H17.3192V20ZM17.8555 13.7038C18.2212 13.7038 18.5266 13.4197 18.5266 13.0717C18.5266 12.7237 18.2212 12.4361 17.8555 12.4361C17.4862 12.4361 17.1843 12.7237 17.1843 13.0717C17.1843 13.4197 17.4862 13.7038 17.8555 13.7038ZM22.1556 14.5455H21.037V13.2386H19.9752V14.5455H19.1762V15.3977H19.9752V18.6186C19.9717 19.6094 20.7281 20.0888 21.5662 20.071C21.9035 20.0675 22.1308 20.0036 22.2551 19.9574L22.0633 19.0803C21.9923 19.0945 21.8609 19.1264 21.6904 19.1264C21.346 19.1264 21.037 19.0128 21.037 18.3984V15.3977H22.1556V14.5455Z" fill="#F28D15"/>
</svg>
