<svg width="32" height="32" viewBox="0 0 32 32" fill="none" xmlns="http://www.w3.org/2000/svg">
<circle cx="16" cy="16" r="16" fill="white"/>
<circle cx="16" cy="16" r="15.5" stroke="#600082" stroke-opacity="0.16"/>
<path d="M12.6999 13.4334C12.4971 13.4334 12.3333 13.5977 12.3333 13.8001V16.1431L10.8141 13.6112C10.8131 13.6094 10.8118 13.6079 10.8107 13.6061C10.8064 13.5991 10.8019 13.5924 10.7971 13.5858C10.7944 13.582 10.7917 13.5783 10.7888 13.5747C10.7846 13.5693 10.7802 13.564 10.7757 13.5588C10.772 13.5546 10.7682 13.5504 10.7644 13.5464C10.7603 13.5422 10.7561 13.5381 10.7519 13.534C10.7473 13.5297 10.7427 13.5255 10.738 13.5214C10.7339 13.5179 10.7296 13.5145 10.7254 13.5112C10.7203 13.5073 10.7153 13.5034 10.7101 13.4998C10.7055 13.4965 10.7007 13.4935 10.696 13.4905C10.6909 13.4873 10.6858 13.4841 10.6806 13.4811C10.6753 13.4781 10.6699 13.4753 10.6644 13.4726C10.6595 13.4701 10.6546 13.4677 10.6496 13.4655C10.6436 13.4628 10.6376 13.4604 10.6315 13.4581C10.6266 13.4562 10.6217 13.4543 10.6167 13.4527C10.6106 13.4506 10.6043 13.4488 10.598 13.447C10.5927 13.4456 10.5874 13.4442 10.582 13.4429C10.5761 13.4416 10.5702 13.4404 10.5641 13.4393C10.558 13.4382 10.5517 13.4373 10.5455 13.4365C10.5402 13.4359 10.5349 13.4353 10.5296 13.4349C10.5224 13.4343 10.5152 13.4339 10.5079 13.4338C10.5052 13.4338 10.5026 13.4334 10.5 13.4334C10.4978 13.4334 10.4956 13.4337 10.4935 13.4338C10.4862 13.4339 10.4789 13.4343 10.4715 13.4349C10.4664 13.4353 10.4612 13.4357 10.4561 13.4363C10.4498 13.4371 10.4434 13.4381 10.4371 13.4392C10.4311 13.4402 10.4251 13.4413 10.4191 13.4426C10.4141 13.4438 10.4091 13.4451 10.404 13.4465C10.3969 13.4485 10.3899 13.4505 10.383 13.4528C10.3791 13.4541 10.3753 13.4555 10.3715 13.457C10.3636 13.46 10.3558 13.4631 10.3482 13.4665C10.3451 13.468 10.3421 13.4695 10.339 13.471C10.331 13.475 10.3231 13.4791 10.3154 13.4836C10.314 13.4844 10.3126 13.485 10.3111 13.4859C10.3094 13.4869 10.3079 13.4882 10.3062 13.4892C10.2992 13.4936 10.2922 13.4982 10.2855 13.5031C10.2819 13.5057 10.2783 13.5083 10.2748 13.5111C10.2692 13.5154 10.2638 13.5199 10.2585 13.5246C10.2544 13.5282 10.2503 13.5319 10.2464 13.5355C10.2421 13.5398 10.2378 13.5441 10.2336 13.5486C10.2295 13.553 10.2254 13.5573 10.2215 13.5619C10.2177 13.5662 10.2142 13.5707 10.2107 13.5753C10.2069 13.58 10.2033 13.5848 10.1998 13.5898C10.1964 13.5947 10.1932 13.5997 10.19 13.6047C10.187 13.6095 10.184 13.6143 10.1812 13.6192C10.178 13.6248 10.175 13.6306 10.1721 13.6365C10.1698 13.641 10.1676 13.6455 10.1655 13.6502C10.1626 13.6565 10.1601 13.6629 10.1576 13.6694C10.1559 13.6739 10.1542 13.6784 10.1527 13.683C10.1505 13.6895 10.1486 13.6961 10.1467 13.7028C10.1453 13.7078 10.144 13.7127 10.1429 13.7177C10.1415 13.7239 10.1402 13.7302 10.1391 13.7365C10.1381 13.7424 10.1372 13.7483 10.1364 13.7543C10.1357 13.7598 10.1352 13.7652 10.1348 13.7708C10.1342 13.7778 10.1339 13.7849 10.1337 13.7921C10.1336 13.7947 10.1333 13.7974 10.1333 13.8V17.4667C10.1333 17.6691 10.2972 17.8333 10.5 17.8333C10.7027 17.8333 10.8666 17.6691 10.8666 17.4667V15.1237L12.3857 17.6555C12.3865 17.6569 12.3875 17.658 12.3883 17.6593C12.3953 17.6705 12.4028 17.6814 12.4109 17.6917C12.4123 17.6936 12.4136 17.6956 12.415 17.6974C12.424 17.7084 12.4335 17.7189 12.4437 17.7288C12.4468 17.7318 12.45 17.7345 12.4532 17.7375C12.4607 17.7443 12.4684 17.7508 12.4764 17.757C12.4802 17.7598 12.4839 17.7627 12.4878 17.7655C12.4975 17.7724 12.5076 17.7789 12.518 17.7849C12.5197 17.7858 12.5213 17.7869 12.523 17.7879C12.5356 17.7949 12.5488 17.801 12.5624 17.8065C12.5644 17.8074 12.5666 17.808 12.5687 17.8088C12.5801 17.8132 12.5917 17.817 12.6036 17.8202C12.6068 17.8211 12.61 17.8219 12.6132 17.8227C12.6244 17.8254 12.6358 17.8276 12.6473 17.8292C12.6505 17.8297 12.6536 17.8303 12.6568 17.8307C12.671 17.8324 12.6853 17.8335 12.7 17.8335C12.7001 17.8335 12.7001 17.8335 12.7002 17.8335C12.7003 17.8335 12.7003 17.8335 12.7004 17.8335C12.7008 17.8335 12.7012 17.8334 12.7015 17.8334C12.716 17.8333 12.7301 17.8322 12.7441 17.8305C12.7482 17.83 12.7523 17.8293 12.7564 17.8286C12.7677 17.8269 12.7788 17.8246 12.7898 17.8219C12.7934 17.821 12.797 17.8201 12.8006 17.8191C12.8307 17.8105 12.8592 17.7982 12.8856 17.7827C12.8867 17.782 12.8878 17.7816 12.8888 17.781C12.8906 17.78 12.8921 17.7787 12.8938 17.7777C12.9008 17.7733 12.9077 17.7687 12.9145 17.7638C12.9181 17.7612 12.9217 17.7585 12.9252 17.7558C12.9308 17.7514 12.9362 17.7469 12.9415 17.7422C12.9456 17.7387 12.9496 17.735 12.9536 17.7313C12.9579 17.7271 12.9622 17.7227 12.9664 17.7183C12.9705 17.7139 12.9746 17.7095 12.9785 17.705C12.9822 17.7006 12.9857 17.6961 12.9893 17.6916C12.993 17.6868 12.9967 17.682 13.0001 17.6771C13.0035 17.6722 13.0067 17.6672 13.0099 17.6621C13.0129 17.6573 13.0159 17.6526 13.0187 17.6477C13.0219 17.642 13.0249 17.6362 13.0278 17.6303C13.0301 17.6258 13.0323 17.6213 13.0344 17.6166C13.0373 17.6103 13.0398 17.6039 13.0423 17.5974C13.044 17.5929 13.0457 17.5884 13.0472 17.5838C13.0494 17.5773 13.0514 17.5707 13.0532 17.564C13.0546 17.5591 13.0559 17.5541 13.057 17.549C13.0584 17.5429 13.0596 17.5366 13.0608 17.5303C13.0618 17.5244 13.0627 17.5184 13.0635 17.5124C13.0642 17.507 13.0647 17.5015 13.0651 17.496C13.0657 17.4889 13.066 17.4818 13.0662 17.4747C13.0663 17.472 13.0666 17.4694 13.0666 17.4667V13.8001C13.0666 13.5977 12.9027 13.4334 12.6999 13.4334Z" fill="#383EC8"/>
<path d="M19.2348 17.675C19.2437 17.662 19.2517 17.6486 19.2589 17.6346C19.2612 17.6302 19.2633 17.6256 19.2654 17.6211C19.2724 17.6059 19.2787 17.5905 19.2837 17.5745C19.2839 17.5737 19.2844 17.573 19.2846 17.5722L20.0333 15.0764L20.782 17.5722C20.7823 17.573 20.7827 17.5737 20.7829 17.5745C20.7879 17.5905 20.7942 17.6059 20.8012 17.6211C20.8033 17.6257 20.8054 17.6302 20.8077 17.6347C20.8149 17.6486 20.8229 17.6621 20.8318 17.675C20.8346 17.6791 20.8377 17.6829 20.8406 17.6869C20.8496 17.6989 20.8591 17.7104 20.8695 17.7212C20.8708 17.7226 20.872 17.7241 20.8733 17.7254C20.8853 17.7375 20.8984 17.7485 20.9121 17.7589C20.9147 17.7608 20.9172 17.7628 20.9198 17.7646C20.9338 17.7747 20.9485 17.7839 20.964 17.792C20.9655 17.7928 20.967 17.7934 20.9685 17.7941C20.9829 17.8014 20.998 17.8076 21.0136 17.8131C21.0161 17.8139 21.0186 17.8149 21.0212 17.8158C21.0235 17.8165 21.0257 17.8175 21.028 17.8182C21.0379 17.8211 21.0477 17.8226 21.0575 17.8247C21.0643 17.8261 21.071 17.8281 21.078 17.8292C21.0965 17.832 21.1149 17.8336 21.1333 17.8336C21.1516 17.8336 21.17 17.832 21.1885 17.8292C21.1955 17.8281 21.2022 17.8262 21.209 17.8247C21.2189 17.8226 21.2287 17.8211 21.2385 17.8183C21.2409 17.8176 21.243 17.8165 21.2454 17.8158C21.2479 17.815 21.2504 17.814 21.2529 17.8131C21.2685 17.8077 21.2836 17.8014 21.298 17.7941C21.2995 17.7934 21.301 17.7928 21.3025 17.792C21.318 17.784 21.3327 17.7747 21.3467 17.7647C21.3493 17.7628 21.3518 17.7608 21.3544 17.7589C21.3681 17.7485 21.3812 17.7375 21.3932 17.7254C21.3945 17.7241 21.3957 17.7226 21.397 17.7213C21.4074 17.7105 21.4169 17.6989 21.4259 17.687C21.4289 17.683 21.4319 17.6791 21.4348 17.675C21.4437 17.6621 21.4517 17.6487 21.4588 17.6347C21.4611 17.6303 21.4632 17.6257 21.4653 17.6212C21.4724 17.606 21.4787 17.5906 21.4836 17.5746C21.4839 17.5738 21.4843 17.5731 21.4845 17.5723L22.5845 13.9056C22.6424 13.7117 22.5325 13.507 22.3385 13.4491C22.1438 13.3901 21.9399 13.5008 21.882 13.6948L21.1333 16.1906L20.3845 13.6948C20.3842 13.6936 20.3837 13.6926 20.3834 13.6915C20.3831 13.6907 20.3828 13.69 20.3826 13.6892C20.3569 13.6081 20.3057 13.5422 20.2403 13.4977C20.2396 13.4972 20.2389 13.4966 20.2381 13.4961C20.2281 13.4894 20.2178 13.4831 20.2072 13.4774C20.2069 13.4773 20.2066 13.4772 20.2063 13.477C20.1959 13.4715 20.1853 13.4664 20.1744 13.4619C20.1726 13.4611 20.1706 13.4605 20.1687 13.4598C20.1592 13.456 20.1495 13.4525 20.1397 13.4495C20.1393 13.4494 20.1389 13.4492 20.1385 13.4491C20.1354 13.4482 20.1322 13.4476 20.129 13.4468C20.1213 13.4446 20.1136 13.4425 20.1057 13.441C20.097 13.4391 20.0883 13.438 20.0796 13.4368C20.077 13.4365 20.0745 13.436 20.0719 13.4357C19.9009 13.4168 19.7372 13.5207 19.6839 13.6894C19.6837 13.69 19.6834 13.6907 19.6832 13.6914C19.6829 13.6925 19.6823 13.6936 19.682 13.6948L18.9333 16.1906L18.1845 13.6948C18.1266 13.5008 17.9224 13.3911 17.728 13.4491C17.5341 13.507 17.4241 13.7117 17.482 13.9056L18.582 17.5723C18.5823 17.5731 18.5827 17.5738 18.5829 17.5746C18.5878 17.5906 18.5942 17.606 18.6012 17.6212C18.6033 17.6258 18.6054 17.6303 18.6077 17.6348C18.6149 17.6487 18.6229 17.6621 18.6318 17.675C18.6346 17.6792 18.6376 17.683 18.6406 17.687C18.6495 17.699 18.6591 17.7105 18.6695 17.7213C18.6708 17.7226 18.6719 17.7242 18.6733 17.7255C18.6852 17.7376 18.6984 17.7486 18.7121 17.759C18.7146 17.7609 18.7171 17.7629 18.7198 17.7647C18.7337 17.7748 18.7484 17.784 18.764 17.7921C18.7654 17.7929 18.767 17.7935 18.7684 17.7942C18.7828 17.8015 18.7979 17.8077 18.8136 17.8131C18.8161 17.814 18.8185 17.815 18.8211 17.8158C18.8234 17.8166 18.8256 17.8176 18.828 17.8183C18.8378 17.8212 18.8476 17.8227 18.8574 17.8247C18.8643 17.8262 18.871 17.8282 18.878 17.8293C18.8964 17.8321 18.9149 17.8337 18.9332 17.8337C18.9516 17.8337 18.97 17.8321 18.9885 17.8293C18.9954 17.8282 19.0021 17.8262 19.009 17.8248C19.0188 17.8227 19.0286 17.8212 19.0385 17.8183C19.0408 17.8177 19.043 17.8166 19.0453 17.8159C19.0479 17.8151 19.0504 17.8141 19.0528 17.8132C19.0685 17.8078 19.0836 17.8015 19.098 17.7942C19.0995 17.7935 19.101 17.7929 19.1024 17.7921C19.118 17.7841 19.1327 17.7748 19.1466 17.7648C19.1493 17.7629 19.1518 17.7609 19.1543 17.759C19.168 17.7486 19.1812 17.7376 19.1931 17.7255C19.1944 17.7242 19.1956 17.7227 19.1969 17.7214C19.2073 17.7106 19.2169 17.699 19.2258 17.6871C19.229 17.6829 19.232 17.6791 19.2348 17.675Z" fill="#383EC8"/>
<path d="M16 5C9.93462 5 5 9.93462 5 16C5 22.0654 9.93462 27 16 27C22.0654 27 27 22.0654 27 16C27 9.93462 22.0654 5 16 5ZM16 26.2667C10.339 26.2667 5.73335 21.661 5.73335 16C5.73335 10.339 10.339 5.73335 16 5.73335C21.661 5.73335 26.2667 10.339 26.2667 16C26.2667 21.661 21.661 26.2667 16 26.2667Z" fill="#383EC8"/>
<path d="M16.3666 7.56644C16.3666 7.36406 16.2024 7.20013 16 7.20013H15.9996C15.2776 7.20052 14.5535 7.29252 13.8462 7.47294C13.65 7.52283 13.5316 7.72263 13.5815 7.91917C13.6236 8.0849 13.7729 8.1949 13.9364 8.1949C13.9665 8.1949 13.9969 8.19125 14.0273 8.18351C14.6759 8.01813 15.3392 7.93382 16.0003 7.93344C16.2028 7.93313 16.3666 7.76887 16.3666 7.56644Z" fill="#383EC8"/>
<path d="M12.5131 8.73759C12.6953 8.64959 12.772 8.43032 12.684 8.24809C12.5964 8.06586 12.3767 7.98921 12.1945 8.07686C10.4657 8.91102 9.03785 10.2945 8.17435 11.9716C8.08158 12.1516 8.15235 12.3728 8.33239 12.4655C8.38593 12.493 8.4435 12.5062 8.49996 12.5062C8.63269 12.5062 8.76139 12.4336 8.82631 12.3074C9.61754 10.7707 10.9269 9.50282 12.5131 8.73759Z" fill="#383EC8"/>
<path d="M7.97399 13.3771C7.7793 13.3233 7.57653 13.4369 7.5226 13.632C7.30883 14.399 7.20034 15.1958 7.19995 15.9999C7.19995 16.2023 7.36383 16.3666 7.5666 16.3666C7.76899 16.3666 7.93326 16.2027 7.93326 15.9999C7.93364 15.2622 8.03299 14.5318 8.2288 13.8285C8.28306 13.6335 8.16907 13.4314 7.97399 13.3771Z" fill="#383EC8"/>
<path d="M18.1003 23.7825C17.4128 23.9706 16.7058 24.0663 15.9996 24.0666C15.7972 24.0666 15.6333 24.2309 15.6333 24.4333C15.6333 24.636 15.7976 24.7999 16 24.7999H16.0003C16.7715 24.7995 17.5429 24.695 18.2935 24.4897C18.4889 24.4362 18.604 24.2346 18.5505 24.0395C18.497 23.8437 18.2935 23.7293 18.1003 23.7825Z" fill="#383EC8"/>
<path d="M23.8039 19.2229C23.6191 19.1371 23.402 19.2174 23.317 19.4007C22.5789 20.9855 21.3036 22.3139 19.7262 23.1407C19.5473 23.235 19.4776 23.4564 19.5718 23.6357C19.6374 23.7608 19.765 23.8323 19.897 23.8323C19.9542 23.8323 20.0125 23.8187 20.0672 23.7905C21.7857 22.8889 23.1761 21.4401 23.9817 19.7102C24.0672 19.5265 23.9876 19.3087 23.8039 19.2229Z" fill="#383EC8"/>
<path d="M24.4336 15.6333H24.4332C24.2312 15.6333 24.0666 15.7972 24.0666 16C24.0662 16.6266 23.9947 17.2492 23.8535 17.8498C23.8073 18.0471 23.9294 18.2443 24.1271 18.2909C24.1553 18.2975 24.1832 18.3004 24.211 18.3004C24.3771 18.3004 24.5278 18.1864 24.5678 18.0177C24.7218 17.3618 24.7995 16.6831 24.7999 16.0004C24.7999 15.7976 24.636 15.6336 24.4336 15.6333Z" fill="#383EC8"/>
<path d="M16.3667 17.4666C16.3667 17.2642 16.2028 17.0999 16.0001 17.0999H14.9001V15.9999H16.0001C16.2028 15.9999 16.3667 15.8356 16.3667 15.6332C16.3667 15.4309 16.2028 15.2666 16.0001 15.2666H14.9001V14.1666H16.0001C16.2028 14.1666 16.3667 14.0023 16.3667 13.7999C16.3667 13.5976 16.2028 13.4333 16.0001 13.4333H14.5334C14.3306 13.4333 14.1667 13.5976 14.1667 13.7999V17.4666C14.1667 17.669 14.3306 17.8332 14.5334 17.8332H16.0001C16.2028 17.8332 16.3667 17.669 16.3667 17.4666Z" fill="#383EC8"/>
</svg>
