<svg width="32" height="32" viewBox="0 0 32 32" fill="none" xmlns="http://www.w3.org/2000/svg">
<circle cx="16" cy="16" r="16" fill="white"/>
<circle cx="16" cy="16" r="15.5" stroke="#600082" stroke-opacity="0.16"/>
<path d="M21.4997 11.8758V8.43848C21.4997 8.05882 21.1919 7.75101 20.8122 7.75101H20.1247V5.68862C20.1247 5.30897 19.817 5.00116 19.4373 5.00116C18.464 5.00116 16.9735 4.92657 15.2238 5.97478C14.1361 5.65103 13.3669 5.68862 12.5626 5.68862C12.1829 5.68862 11.8752 5.99643 11.8752 6.37609V7.75101H11.1877C10.808 7.75101 10.5002 8.05882 10.5002 8.43848V11.8758C10.5002 14.6756 12.6032 16.9933 15.3125 17.3326V26.3125C15.3125 26.6922 15.6203 27 15.9999 27C16.3796 27 16.6874 26.6922 16.6874 26.3125V23.9064H17.7186C19.8035 23.9064 21.4997 22.2102 21.4997 20.1254V19.0942C21.4997 18.7145 21.1919 18.4067 20.8122 18.4067H19.0935C18.1803 18.4067 17.3416 18.7322 16.6874 19.2732V17.3323C19.3926 16.9973 21.4997 14.6911 21.4997 11.8758ZM20.1247 11.8758C20.1247 13.0993 19.5836 14.2043 18.7285 14.9619C18.742 14.8516 18.7498 14.7396 18.7498 14.6256C18.7498 12.8847 18.0989 11.2931 17.0282 10.0806C17.936 9.46121 19.0122 9.12594 20.1247 9.12594V11.8758ZM18.7498 6.37609V7.88971C18.6227 7.91557 18.4966 7.94509 18.3715 7.97805C17.9255 7.47882 17.4169 7.05349 16.8615 6.70981C17.4618 6.49033 18.099 6.37609 18.7498 6.37609ZM13.2501 7.06355C14.6159 7.06355 15.9422 7.56226 16.9737 8.51513C16.6333 8.69082 16.3069 8.89564 15.9979 9.12787C15.1986 8.52694 14.2647 8.09599 13.2501 7.88924V7.06355ZM11.8752 11.8758V9.12594C14.9077 9.12594 17.3749 11.5931 17.3749 14.6256C17.3749 15.3939 16.7405 16.0199 15.9638 15.9999C13.5487 15.9403 11.8752 14.0215 11.8752 11.8758ZM19.0935 19.7816H20.1247V20.1254C20.1247 21.4521 19.0454 22.5315 17.7186 22.5315H16.6874V22.1877C16.6874 20.861 17.7668 19.7816 19.0935 19.7816Z" fill="#C8388E"/>
</svg>
