<svg width="20" height="20" viewBox="0 0 20 20" fill="none" xmlns="http://www.w3.org/2000/svg">
<path d="M1.51034 3.33337C1.32696 3.33337 1.16474 3.4039 1.02368 3.54496C0.896729 3.67192 0.833252 3.82708 0.833252 4.01046C0.833252 4.19383 0.896729 4.35605 1.02368 4.49711C1.16474 4.62406 1.32696 4.68754 1.51034 4.68754H3.01261L4.78996 11.7969C4.86049 12.0931 5.01565 12.34 5.25545 12.5375C5.50936 12.7209 5.79148 12.8125 6.10181 12.8125H14.7004C15.0108 12.8125 15.2788 12.7209 15.5045 12.5375C15.7443 12.3541 15.9065 12.1143 15.9911 11.8181L17.7473 5.36462H5.57283L5.91138 6.71879H15.9911L14.7004 11.4584H6.10181L4.32446 4.349C4.25393 4.05278 4.09172 3.81297 3.83781 3.6296C3.59801 3.43212 3.32294 3.33337 3.01261 3.33337H1.51034Z" fill="#E15354"/>
<path d="M8.12492 15.4167C8.12492 16.1071 7.56527 16.6667 6.87492 16.6667C6.18456 16.6667 5.62492 16.1071 5.62492 15.4167C5.62492 14.7264 6.18456 14.1667 6.87492 14.1667C7.56527 14.1667 8.12492 14.7264 8.12492 15.4167Z" fill="#E15354"/>
<path d="M14.7916 15.4167C14.7916 16.1071 14.2319 16.6667 13.5416 16.6667C12.8512 16.6667 12.2916 16.1071 12.2916 15.4167C12.2916 14.7264 12.8512 14.1667 13.5416 14.1667C14.2319 14.1667 14.7916 14.7264 14.7916 15.4167Z" fill="#E15354"/>
</svg>
