<svg width="20" height="20" viewBox="0 0 20 20" fill="none" xmlns="http://www.w3.org/2000/svg">
<path d="M8.71585 1.88934C8.3366 1.88934 8.02508 2.01124 7.78128 2.25504C7.53748 2.49884 7.41559 2.81036 7.41559 3.1896V3.83973H3.34961V5.13999H4.16494V15.5421C4.16494 16.0703 4.35456 16.5308 4.7338 16.9236C5.12659 17.3028 5.5871 17.4925 6.11533 17.4925H13.9169C14.4451 17.4925 14.8989 17.3028 15.2781 16.9236C15.6709 16.5308 15.8673 16.0703 15.8673 15.5421V5.13999H16.6879V3.83973H12.6166V3.1896C12.6166 2.81036 12.4947 2.49884 12.2509 2.25504C12.0071 2.01124 11.6956 1.88934 11.3164 1.88934H8.71585ZM8.71585 3.1896H11.3164V3.83973H8.71585V3.1896ZM5.4652 5.13999H14.567V15.5421C14.567 15.7181 14.4993 15.8739 14.3638 16.0093C14.2419 16.1312 14.093 16.1922 13.9169 16.1922H6.11533C5.93925 16.1922 5.78349 16.1312 5.64805 16.0093C5.52615 15.8739 5.4652 15.7181 5.4652 15.5421V5.13999ZM6.76546 7.09038V14.2418H8.06572V7.09038H6.76546ZM9.36597 7.09038V14.2418H10.6662V7.09038H9.36597ZM11.9665 7.09038V14.2418H13.2668V7.09038H11.9665Z" fill="#383838" fill-opacity="0.32"/>
</svg>
