<svg width="24" height="24" viewBox="0 0 24 24" fill="none" xmlns="http://www.w3.org/2000/svg">
<path d="M10.459 2.26721C10.0039 2.26721 9.6301 2.41349 9.33754 2.70605C9.04498 2.99861 8.8987 3.37243 8.8987 3.82752V4.60768H4.01953V6.16799H4.99792V18.6505C4.99792 19.2844 5.22547 19.837 5.68056 20.3083C6.1519 20.7634 6.70451 20.9909 7.33839 20.9909H16.7003C17.3341 20.9909 17.8786 20.7634 18.3337 20.3083C18.8051 19.837 19.0407 19.2844 19.0407 18.6505V6.16799H20.0255V4.60768H15.1399V3.82752C15.1399 3.37243 14.9937 2.99861 14.7011 2.70605C14.4086 2.41349 14.0347 2.26721 13.5796 2.26721H10.459ZM10.459 3.82752H13.5796V4.60768H10.459V3.82752ZM6.55824 6.16799H17.4804V18.6505C17.4804 18.8618 17.3992 19.0487 17.2366 19.2112C17.0903 19.3575 16.9116 19.4306 16.7003 19.4306H7.33839C7.1271 19.4306 6.94019 19.3575 6.77765 19.2112C6.63137 19.0487 6.55824 18.8618 6.55824 18.6505V6.16799ZM8.11855 8.50846V17.0902H9.67886V8.50846H8.11855ZM11.2392 8.50846V17.0902H12.7995V8.50846H11.2392ZM14.3598 8.50846V17.0902H15.9201V8.50846H14.3598Z" fill="#383838" fill-opacity="0.32"/>
</svg>
