<svg width="48" height="40" viewBox="0 0 48 40" fill="none" xmlns="http://www.w3.org/2000/svg">
<rect width="48" height="40" rx="8" fill="#F6F6F6"/>
<path d="M28.8264 8.75421L26.128 8.75C23.0965 8.75 21.1374 10.706 21.1374 13.7336V16.0313H18.4243C18.1898 16.0313 18 16.2163 18 16.4444V19.7736C18 20.0018 18.1901 20.1865 18.4243 20.1865H21.1374V28.5871C21.1374 28.8152 21.3272 29 21.5617 29H25.1015C25.3359 29 25.5258 28.815 25.5258 28.5871V20.1865H28.698C28.9324 20.1865 29.1223 20.0018 29.1223 19.7736L29.1236 16.4444C29.1236 16.3349 29.0788 16.23 28.9993 16.1524C28.9199 16.0749 28.8116 16.0313 28.6991 16.0313H25.5258V14.0835C25.5258 13.1473 25.755 12.672 27.0082 12.672L28.8259 12.6714C29.0602 12.6714 29.25 12.4864 29.25 12.2585V9.16712C29.25 8.93939 29.0604 8.75463 28.8264 8.75421Z" fill="#475993"/>
</svg>
