<svg width="50" height="42" viewBox="0 0 50 42" fill="none" xmlns="http://www.w3.org/2000/svg">
<rect x="1" y="1" width="48" height="40" rx="8" fill="white"/>
<path d="M29.8264 9.75421L27.128 9.75C24.0965 9.75 22.1374 11.706 22.1374 14.7336V17.0313H19.4243C19.1898 17.0313 19 17.2163 19 17.4444V20.7736C19 21.0018 19.1901 21.1865 19.4243 21.1865H22.1374V29.5871C22.1374 29.8152 22.3272 30 22.5617 30H26.1015C26.3359 30 26.5258 29.815 26.5258 29.5871V21.1865H29.698C29.9324 21.1865 30.1223 21.0018 30.1223 20.7736L30.1236 17.4444C30.1236 17.3349 30.0788 17.23 29.9993 17.1524C29.9199 17.0749 29.8116 17.0313 29.6991 17.0313H26.5258V15.0835C26.5258 14.1473 26.755 13.672 28.0082 13.672L29.8259 13.6714C30.0602 13.6714 30.25 13.4864 30.25 13.2585V10.1671C30.25 9.93939 30.0604 9.75463 29.8264 9.75421Z" fill="#475993"/>
<rect x="0.5" y="0.5" width="49" height="41" rx="8.5" stroke="black" stroke-opacity="0.04"/>
</svg>
