<svg width="48" height="48" viewBox="0 0 48 48" fill="none" xmlns="http://www.w3.org/2000/svg">
<rect width="48" height="48" rx="12" fill="#F6F6F6"/>
<path d="M30.4351 9.00562L26.8373 9C22.7953 9 20.1832 11.6081 20.1832 15.6447V18.7084H16.5657C16.2531 18.7084 16 18.955 16 19.2592V23.6981C16 24.0023 16.2534 24.2487 16.5657 24.2487H20.1832V35.4495C20.1832 35.7537 20.4363 36 20.7489 36H25.4686C25.7812 36 26.0343 35.7534 26.0343 35.4495V24.2487H30.264C30.5766 24.2487 30.8297 24.0023 30.8297 23.6981L30.8314 19.2592C30.8314 19.1132 30.7717 18.9733 30.6658 18.8699C30.5598 18.7665 30.4155 18.7084 30.2654 18.7084H26.0343V16.1113C26.0343 14.863 26.34 14.2293 28.0109 14.2293L30.4346 14.2285C30.7469 14.2285 31 13.9819 31 13.6779V9.55616C31 9.25252 30.7472 9.00618 30.4351 9.00562Z" fill="#475993"/>
</svg>
