<svg width="50" height="50" viewBox="0 0 50 50" fill="none" xmlns="http://www.w3.org/2000/svg">
<rect x="1" y="1" width="48" height="48" rx="12" fill="white"/>
<path d="M31.4351 10.0056L27.8373 10C23.7953 10 21.1832 12.6081 21.1832 16.6447V19.7084H17.5657C17.2531 19.7084 17 19.955 17 20.2592V24.6981C17 25.0023 17.2534 25.2487 17.5657 25.2487H21.1832V36.4495C21.1832 36.7537 21.4363 37 21.7489 37H26.4686C26.7812 37 27.0343 36.7534 27.0343 36.4495V25.2487H31.264C31.5766 25.2487 31.8297 25.0023 31.8297 24.6981L31.8314 20.2592C31.8314 20.1132 31.7717 19.9733 31.6658 19.8699C31.5598 19.7665 31.4155 19.7084 31.2654 19.7084H27.0343V17.1113C27.0343 15.863 27.34 15.2293 29.0109 15.2293L31.4346 15.2285C31.7469 15.2285 32 14.9819 32 14.6779V10.5562C32 10.2525 31.7472 10.0062 31.4351 10.0056Z" fill="#475993"/>
<rect x="0.5" y="0.5" width="49" height="49" rx="12.5" stroke="black" stroke-opacity="0.04"/>
</svg>
