<svg width="50" height="42" viewBox="0 0 50 42" fill="none" xmlns="http://www.w3.org/2000/svg">
<rect x="1" y="1" width="48" height="40" rx="8" fill="white"/>
<path fill-rule="evenodd" clip-rule="evenodd" d="M33.64 21.2047C33.64 20.5665 33.5827 19.9529 33.4764 19.3638H25V22.8451H29.8436C29.635 23.9701 29.0009 24.9233 28.0477 25.5615V27.8197H30.9564C32.6582 26.2529 33.64 23.9456 33.64 21.2047Z" fill="#4285F4"/>
<path fill-rule="evenodd" clip-rule="evenodd" d="M24.9998 30C27.4298 30 29.467 29.1941 30.9561 27.8195L28.0475 25.5613C27.2416 26.1013 26.2107 26.4204 24.9998 26.4204C22.6557 26.4204 20.6716 24.8372 19.9638 22.71H16.957V25.0418C18.4379 27.9831 21.4816 30 24.9998 30Z" fill="#34A853"/>
<path fill-rule="evenodd" clip-rule="evenodd" d="M19.9641 22.7101C19.7841 22.1701 19.6818 21.5933 19.6818 21.0001C19.6818 20.4069 19.7841 19.8301 19.9641 19.2901V16.9583H16.9573C16.3477 18.1733 16 19.5478 16 21.0001C16 22.4523 16.3477 23.8269 16.9573 25.0419L19.9641 22.7101Z" fill="#FBBC05"/>
<path fill-rule="evenodd" clip-rule="evenodd" d="M24.9998 15.5795C26.3211 15.5795 27.5075 16.0336 28.4402 16.9255L31.0216 14.3441C29.4629 12.8918 27.4257 12 24.9998 12C21.4816 12 18.4379 14.0168 16.957 16.9582L19.9638 19.29C20.6716 17.1627 22.6557 15.5795 24.9998 15.5795Z" fill="#EA4335"/>
<rect x="0.5" y="0.5" width="49" height="41" rx="8.5" stroke="black" stroke-opacity="0.04"/>
</svg>
