<svg width="50" height="50" viewBox="0 0 50 50" fill="none" xmlns="http://www.w3.org/2000/svg">
<rect x="1" y="1" width="48" height="48" rx="12" fill="white"/>
<path fill-rule="evenodd" clip-rule="evenodd" d="M36.52 25.2727C36.52 24.4218 36.4436 23.6036 36.3018 22.8181H25V27.4599H31.4582C31.18 28.9599 30.3345 30.2308 29.0636 31.0818V34.0927H32.9418C35.2109 32.0036 36.52 28.9272 36.52 25.2727Z" fill="#4285F4"/>
<path fill-rule="evenodd" clip-rule="evenodd" d="M25.001 37C28.241 37 30.9573 35.9255 32.9428 34.0928L29.0646 31.0818C27.9901 31.8018 26.6155 32.2273 25.001 32.2273C21.8755 32.2273 19.2301 30.1164 18.2864 27.28H14.2773V30.3891C16.2519 34.3109 20.3101 37 25.001 37Z" fill="#34A853"/>
<path fill-rule="evenodd" clip-rule="evenodd" d="M18.2855 27.2799C18.0455 26.5599 17.9091 25.7908 17.9091 24.9999C17.9091 24.209 18.0455 23.4399 18.2855 22.7199V19.6108H14.2764C13.4636 21.2308 13 23.0636 13 24.9999C13 26.9363 13.4636 28.769 14.2764 30.389L18.2855 27.2799Z" fill="#FBBC05"/>
<path fill-rule="evenodd" clip-rule="evenodd" d="M25.001 17.7727C26.7628 17.7727 28.3446 18.3782 29.5883 19.5673L33.0301 16.1255C30.9519 14.1891 28.2355 13 25.001 13C20.3101 13 16.2519 15.6891 14.2773 19.6109L18.2864 22.72C19.2301 19.8836 21.8755 17.7727 25.001 17.7727Z" fill="#EA4335"/>
<rect x="0.5" y="0.5" width="49" height="49" rx="12.5" stroke="black" stroke-opacity="0.04"/>
</svg>
