<svg width="48" height="40" viewBox="0 0 48 40" fill="none" xmlns="http://www.w3.org/2000/svg">
<rect width="48" height="40" rx="8" fill="#F6F6F6"/>
<path fill-rule="evenodd" clip-rule="evenodd" d="M32.64 20.2046C32.64 19.5664 32.5827 18.9527 32.4764 18.3636H24V21.845H28.8436C28.635 22.97 28.0009 23.9232 27.0477 24.5614V26.8196H29.9564C31.6582 25.2527 32.64 22.9455 32.64 20.2046Z" fill="#4285F4"/>
<path fill-rule="evenodd" clip-rule="evenodd" d="M23.9998 29C26.4298 29 28.467 28.1941 29.9561 26.8196L27.0475 24.5614C26.2416 25.1014 25.2107 25.4205 23.9998 25.4205C21.6557 25.4205 19.6716 23.8373 18.9638 21.71H15.957V24.0418C17.4379 26.9832 20.4816 29 23.9998 29Z" fill="#34A853"/>
<path fill-rule="evenodd" clip-rule="evenodd" d="M18.9641 21.71C18.7841 21.17 18.6818 20.5932 18.6818 20C18.6818 19.4068 18.7841 18.83 18.9641 18.29V15.9582H15.9573C15.3477 17.1732 15 18.5477 15 20C15 21.4523 15.3477 22.8268 15.9573 24.0418L18.9641 21.71Z" fill="#FBBC05"/>
<path fill-rule="evenodd" clip-rule="evenodd" d="M23.9998 14.5795C25.3211 14.5795 26.5075 15.0336 27.4402 15.9255L30.0216 13.3441C28.4629 11.8918 26.4257 11 23.9998 11C20.4816 11 17.4379 13.0168 15.957 15.9582L18.9638 18.29C19.6716 16.1627 21.6557 14.5795 23.9998 14.5795Z" fill="#EA4335"/>
</svg>
