<svg width="48" height="40" viewBox="0 0 48 40" fill="none" xmlns="http://www.w3.org/2000/svg">
<rect width="48" height="40" rx="8" fill="#F6F6F6"/>
<path d="M22.8933 24.2467C21.1504 24.0757 19.579 23.6719 18.2335 22.6819C18.0666 22.5587 17.8942 22.44 17.7419 22.3024C17.153 21.7703 17.0937 21.1609 17.5596 20.5329C17.9583 19.9955 18.6275 19.8517 19.323 20.1603C19.4577 20.2201 19.586 20.2948 19.7089 20.3749C22.2164 21.9958 25.661 22.0406 28.1778 20.4478C28.4272 20.268 28.6937 20.1213 29.0026 20.0464C29.6033 19.9013 30.1635 20.1089 30.4858 20.6033C30.8541 21.168 30.8494 21.7192 30.3956 22.1575C29.6996 22.8297 28.8625 23.3159 27.9325 23.6553C27.053 23.976 26.0897 24.1375 25.1363 24.2447C25.2802 24.3921 25.348 24.4645 25.438 24.5496C26.7325 25.7733 28.0328 26.9919 29.3231 28.2193C29.7627 28.6376 29.8545 29.1562 29.6125 29.6426C29.3478 30.1743 28.7554 30.5241 28.1745 30.4866C27.8065 30.4627 27.5195 30.2904 27.2645 30.0487C26.2875 29.1238 25.2922 28.216 24.3351 27.2736C24.0565 26.9996 23.9225 27.0515 23.6767 27.2894C22.6939 28.2413 21.6951 29.1785 20.6903 30.1105C20.2392 30.5289 19.7023 30.6043 19.1791 30.3652C18.623 30.1116 18.2691 29.5775 18.2964 29.0407C18.3152 28.6777 18.505 28.4003 18.7699 28.1515C20.0511 26.948 21.3287 25.7414 22.6068 24.5358C22.6913 24.4556 22.7702 24.3706 22.8933 24.2467Z" fill="#EE8208"/>
<path d="M23.956 20C20.673 19.9895 17.981 17.4413 18.0001 14.3625C18.019 11.2498 20.7128 8.74141 24.0281 8.75002C27.3501 8.7584 30.0166 11.3029 29.9999 14.448C29.983 17.5204 27.2723 20.0107 23.956 20ZM26.9397 14.37C26.934 12.8413 25.6337 11.6244 24.0042 11.623C22.3611 11.6213 21.0492 12.8604 21.0618 14.403C21.074 15.9259 22.3855 17.1342 24.0194 17.1286C25.6484 17.1233 26.9451 15.8984 26.9397 14.37Z" fill="#EE8208"/>
</svg>
