<svg width="48" height="48" viewBox="0 0 48 48" fill="none" xmlns="http://www.w3.org/2000/svg">
<rect width="48" height="48" rx="12" fill="#F6F6F6"/>
<path d="M22.5244 29.6623C20.2006 29.4343 18.1053 28.8958 16.3114 27.5759C16.0888 27.4116 15.859 27.2533 15.6559 27.0699C14.8707 26.3604 14.7915 25.5479 15.4129 24.7105C15.9444 23.994 16.8366 23.8023 17.764 24.2137C17.9436 24.2935 18.1147 24.393 18.2786 24.4999C21.6218 26.6611 26.2146 26.7208 29.5704 24.5971C29.9029 24.3573 30.2583 24.1617 30.6702 24.0619C31.4711 23.8684 32.218 24.1452 32.6478 24.8045C33.1388 25.5573 33.1325 26.2922 32.5275 26.8767C31.5995 27.7729 30.4834 28.4212 29.2433 28.8737C28.0707 29.3014 26.7863 29.5167 25.5151 29.6597C25.707 29.8561 25.7974 29.9527 25.9173 30.0661C27.6434 31.6977 29.377 33.3225 31.0975 34.9591C31.6836 35.5168 31.8061 36.2082 31.4833 36.8568C31.1304 37.5657 30.3405 38.0321 29.566 37.9822C29.0753 37.9503 28.6926 37.7205 28.3526 37.3982C27.05 36.1651 25.723 34.9547 24.4468 33.6982C24.0754 33.3328 23.8967 33.4019 23.569 33.7192C22.2585 34.9883 20.9268 36.238 19.5871 37.4806C18.9856 38.0386 18.2698 38.139 17.5722 37.8203C16.8307 37.4821 16.3588 36.77 16.3952 36.0543C16.4203 35.5702 16.6734 35.2004 17.0266 34.8687C18.7348 33.264 20.4382 31.6551 22.1424 30.0478C22.2551 29.9408 22.3602 29.8274 22.5244 29.6623Z" fill="#EE8208"/>
<path d="M23.9413 24C19.564 23.986 15.9746 20.5884 16.0001 16.4834C16.0253 12.3331 19.617 8.98855 24.0375 9.00003C28.4669 9.0112 32.0221 12.4039 31.9999 16.5973C31.9774 20.6939 28.3631 24.0142 23.9413 24ZM27.9196 16.4933C27.9119 14.4551 26.1782 12.8325 24.0057 12.8306C21.8148 12.8285 20.0655 14.4806 20.0825 16.5374C20.0987 18.5678 21.8473 20.179 24.0259 20.1715C26.1978 20.1644 27.9269 18.5312 27.9196 16.4933Z" fill="#EE8208"/>
</svg>
