<svg width="50" height="42" viewBox="0 0 50 42" fill="none" xmlns="http://www.w3.org/2000/svg">
<rect x="1" y="1" width="48" height="40" rx="8" fill="white"/>
<path d="M23.8933 25.2467C22.1504 25.0757 20.579 24.6719 19.2335 23.6819C19.0666 23.5587 18.8942 23.44 18.7419 23.3024C18.153 22.7703 18.0937 22.1609 18.5596 21.5329C18.9583 20.9955 19.6275 20.8517 20.323 21.1603C20.4577 21.2201 20.586 21.2948 20.7089 21.3749C23.2164 22.9958 26.661 23.0406 29.1778 21.4478C29.4272 21.268 29.6937 21.1213 30.0026 21.0464C30.6033 20.9013 31.1635 21.1089 31.4858 21.6033C31.8541 22.168 31.8494 22.7192 31.3956 23.1575C30.6996 23.8297 29.8625 24.3159 28.9325 24.6553C28.053 24.976 27.0897 25.1375 26.1363 25.2447C26.2802 25.3921 26.348 25.4645 26.438 25.5496C27.7325 26.7733 29.0328 27.9919 30.3231 29.2193C30.7627 29.6376 30.8545 30.1562 30.6125 30.6426C30.3478 31.1743 29.7554 31.5241 29.1745 31.4866C28.8065 31.4627 28.5195 31.2904 28.2645 31.0487C27.2875 30.1238 26.2922 29.216 25.3351 28.2736C25.0565 27.9996 24.9225 28.0515 24.6767 28.2894C23.6939 29.2413 22.6951 30.1785 21.6903 31.1105C21.2392 31.5289 20.7023 31.6043 20.1791 31.3652C19.623 31.1116 19.2691 30.5775 19.2964 30.0407C19.3152 29.6777 19.505 29.4003 19.7699 29.1515C21.0511 27.948 22.3287 26.7414 23.6068 25.5358C23.6913 25.4556 23.7702 25.3706 23.8933 25.2467Z" fill="#EE8208"/>
<path d="M24.956 21C21.673 20.9895 18.981 18.4413 19.0001 15.3625C19.019 12.2498 21.7128 9.74141 25.0281 9.75002C28.3501 9.7584 31.0166 12.3029 30.9999 15.448C30.983 18.5204 28.2723 21.0107 24.956 21ZM27.9397 15.37C27.934 13.8413 26.6337 12.6244 25.0042 12.623C23.3611 12.6213 22.0492 13.8604 22.0618 15.403C22.074 16.9259 23.3855 18.1342 25.0194 18.1286C26.6484 18.1233 27.9451 16.8984 27.9397 15.37Z" fill="#EE8208"/>
<rect x="0.5" y="0.5" width="49" height="41" rx="8.5" stroke="black" stroke-opacity="0.04"/>
</svg>
