<svg width="48" height="48" viewBox="0 0 48 48" fill="none" xmlns="http://www.w3.org/2000/svg">
<rect width="48" height="48" rx="8" fill="#F6F6F6"/>
<path d="M38.25 14.8902C37.3483 15.2905 36.3807 15.5619 35.3641 15.6831C36.4021 15.0604 37.1967 14.0727 37.5733 12.8993C36.5996 13.476 35.5249 13.8948 34.3797 14.1218C33.4626 13.1417 32.1583 12.5313 30.7115 12.5313C27.9358 12.5313 25.6853 14.7859 25.6853 17.5651C25.6853 17.9592 25.7297 18.3442 25.8155 18.7124C21.639 18.5022 17.9356 16.4976 15.457 13.4515C15.0237 14.1938 14.7772 15.0589 14.7772 15.9822C14.7772 17.7292 15.6652 19.2706 17.0125 20.1725C16.1888 20.1449 15.4141 19.9179 14.7359 19.5406V19.6034C14.7359 22.0421 16.469 24.0774 18.7669 24.5407C18.3459 24.6542 17.902 24.717 17.4427 24.717C17.1181 24.717 16.8043 24.6848 16.4965 24.6235C17.1364 26.6251 18.992 28.0806 21.1905 28.1205C19.4712 29.4702 17.3033 30.2724 14.9487 30.2724C14.543 30.2724 14.1434 30.2478 13.75 30.2034C15.9745 31.6344 18.6154 32.4687 21.4538 32.4687C30.6993 32.4687 35.753 24.7968 35.753 18.1433L35.7362 17.4915C36.7236 16.7859 37.5779 15.8994 38.25 14.8902Z" fill="#00ACED"/>
</svg>
