<svg width="48" height="40" viewBox="0 0 48 40" fill="none" xmlns="http://www.w3.org/2000/svg">
<rect width="48" height="40" rx="8" fill="#F6F6F6"/>
<path d="M34.5 13.7022C33.7271 14.0335 32.8978 14.2582 32.0264 14.3585C32.9161 13.8431 33.5972 13.0257 33.92 12.0546C33.0854 12.5319 32.1642 12.8784 31.1826 13.0663C30.3966 12.2552 29.2785 11.75 28.0384 11.75C25.6593 11.75 23.7303 13.6159 23.7303 15.9159C23.7303 16.2421 23.7683 16.5607 23.8418 16.8654C20.262 16.6915 17.0877 15.0325 14.9631 12.5116C14.5918 13.1259 14.3805 13.8418 14.3805 14.606C14.3805 16.0518 15.1416 17.3274 16.2964 18.0738C15.5904 18.0509 14.9264 17.8631 14.3451 17.5508V17.6028C14.3451 19.6211 15.8306 21.3055 17.8002 21.6888C17.4394 21.7828 17.0588 21.8348 16.6651 21.8348C16.387 21.8348 16.1179 21.8081 15.8542 21.7574C16.4027 23.4138 17.9931 24.6184 19.8776 24.6514C18.4039 25.7685 16.5457 26.4323 14.5275 26.4323C14.1798 26.4323 13.8372 26.412 13.5 26.3752C15.4067 27.5595 17.6704 28.25 20.1033 28.25C28.028 28.25 32.3597 21.9008 32.3597 16.3945L32.3453 15.855C33.1917 15.2711 33.9239 14.5374 34.5 13.7022Z" fill="#00ACED"/>
</svg>
