<svg width="50" height="42" viewBox="0 0 50 42" fill="none" xmlns="http://www.w3.org/2000/svg">
<rect x="1" y="1" width="48" height="40" rx="8" fill="white"/>
<path d="M35.5 14.7022C34.7271 15.0335 33.8978 15.2582 33.0264 15.3585C33.9161 14.8431 34.5972 14.0257 34.92 13.0546C34.0854 13.5319 33.1642 13.8784 32.1826 14.0663C31.3966 13.2552 30.2785 12.75 29.0384 12.75C26.6593 12.75 24.7303 14.6159 24.7303 16.9159C24.7303 17.2421 24.7683 17.5607 24.8418 17.8654C21.262 17.6915 18.0877 16.0325 15.9631 13.5116C15.5918 14.1259 15.3805 14.8418 15.3805 15.606C15.3805 17.0518 16.1416 18.3274 17.2964 19.0738C16.5904 19.0509 15.9264 18.8631 15.3451 18.5508V18.6028C15.3451 20.6211 16.8306 22.3055 18.8002 22.6888C18.4394 22.7828 18.0588 22.8348 17.6651 22.8348C17.387 22.8348 17.1179 22.8081 16.8542 22.7574C17.4027 24.4138 18.9931 25.6184 20.8776 25.6514C19.4039 26.7685 17.5457 27.4323 15.5275 27.4323C15.1798 27.4323 14.8372 27.412 14.5 27.3752C16.4067 28.5595 18.6704 29.25 21.1033 29.25C29.028 29.25 33.3597 22.9008 33.3597 17.3945L33.3453 16.855C34.1917 16.2711 34.9239 15.5374 35.5 14.7022Z" fill="#00ACED"/>
<rect x="0.5" y="0.5" width="49" height="41" rx="8.5" stroke="black" stroke-opacity="0.04"/>
</svg>
