<svg width="50" height="50" viewBox="0 0 50 50" fill="none" xmlns="http://www.w3.org/2000/svg">
<rect x="1" y="1" width="48" height="48" rx="12" fill="white"/>
<path d="M40.8303 32.514C40.7915 32.4304 40.7554 32.361 40.7219 32.3054C40.1667 31.3039 39.1057 30.0747 37.5396 28.6173L37.5065 28.584L37.4899 28.5676L37.4732 28.5508H37.4564C36.7456 27.8722 36.2955 27.4159 36.107 27.1823C35.7621 26.7373 35.6849 26.2868 35.8734 25.8304C36.0065 25.4856 36.5068 24.7574 37.3729 23.6447C37.8285 23.055 38.1893 22.5824 38.4557 22.2264C40.3774 19.6676 41.2106 18.0325 40.955 17.3205L40.8557 17.1541C40.789 17.0539 40.6169 16.9622 40.3395 16.8787C40.0615 16.7953 39.7062 16.7815 39.2729 16.837L34.4746 16.8702C34.3969 16.8427 34.2859 16.8452 34.1413 16.8787C33.9969 16.9121 33.9246 16.9289 33.9246 16.9289L33.8411 16.9707L33.7748 17.0209C33.7193 17.0541 33.6582 17.1124 33.5915 17.1959C33.5251 17.2791 33.4696 17.3767 33.4253 17.4879C32.9029 18.834 32.3089 20.0855 31.6423 21.2424C31.2313 21.9322 30.8539 22.5301 30.5092 23.0363C30.1649 23.5423 29.8761 23.9151 29.6431 24.1541C29.4096 24.3933 29.199 24.585 29.0098 24.7298C28.8209 24.8746 28.6767 24.9358 28.5768 24.9134C28.4768 24.891 28.3825 24.8688 28.2933 24.8466C28.1379 24.7464 28.0129 24.6102 27.9186 24.4378C27.824 24.2654 27.7603 24.0483 27.7269 23.7869C27.6938 23.5253 27.6742 23.3003 27.6686 23.1111C27.6634 22.9221 27.6658 22.6549 27.677 22.31C27.6886 21.965 27.6938 21.7316 27.6938 21.6092C27.6938 21.1864 27.702 20.7275 27.7185 20.2325C27.7353 19.7374 27.7489 19.3452 27.7603 19.0563C27.7716 18.767 27.7769 18.461 27.7769 18.1384C27.7769 17.8157 27.7573 17.5627 27.7185 17.3791C27.6803 17.1957 27.6215 17.0176 27.544 16.8451C27.4661 16.6726 27.3521 16.5393 27.2025 16.4446C27.0526 16.35 26.8662 16.275 26.6444 16.2192C26.0556 16.0858 25.3059 16.0136 24.3949 16.0024C22.3291 15.9802 21.0017 16.1138 20.413 16.403C20.1797 16.5252 19.9686 16.6922 19.7799 16.9034C19.5799 17.1483 19.552 17.2819 19.6964 17.3039C20.3629 17.4039 20.8348 17.6431 21.1125 18.0213L21.2126 18.2217C21.2905 18.3663 21.3682 18.6223 21.446 18.9893C21.5236 19.3564 21.5738 19.7624 21.5958 20.2072C21.6513 21.0194 21.6513 21.7147 21.5958 22.2931C21.5402 22.8717 21.4877 23.3221 21.4376 23.6448C21.3874 23.9674 21.3125 24.2288 21.2126 24.429C21.1125 24.6292 21.0459 24.7516 21.0126 24.796C20.9792 24.8405 20.9515 24.8685 20.9294 24.8794C20.785 24.9349 20.6349 24.9631 20.4795 24.9631C20.3238 24.9631 20.1351 24.8851 19.913 24.7293C19.691 24.5735 19.4605 24.3594 19.2217 24.0869C18.9828 23.8142 18.7135 23.4332 18.4135 22.9438C18.1137 22.4543 17.8026 21.8759 17.4805 21.2084L17.214 20.7244C17.0474 20.413 16.8198 19.9595 16.531 19.3645C16.242 18.7692 15.9866 18.1934 15.7646 17.6372C15.6758 17.4036 15.5425 17.2257 15.3648 17.1033L15.2814 17.0531C15.2259 17.0087 15.1369 16.9615 15.0149 16.9113C14.8926 16.8611 14.765 16.8251 14.6316 16.8029L10.0665 16.8361C9.60002 16.8361 9.28349 16.942 9.11683 17.1534L9.05013 17.2534C9.01681 17.3091 9 17.398 9 17.5205C9 17.6428 9.03332 17.7931 9.10002 17.9709C9.76645 19.5396 10.4912 21.0525 11.2742 22.5098C12.0572 23.9671 12.7376 25.141 13.3151 26.0304C13.8926 26.9205 14.4813 27.7606 15.0812 28.5502C15.681 29.3401 16.078 29.8463 16.2723 30.0687C16.4668 30.2915 16.6196 30.458 16.7306 30.5693L17.1472 30.9697C17.4138 31.2367 17.8053 31.5565 18.3218 31.9291C18.8384 32.302 19.4103 32.669 20.0379 33.0308C20.6656 33.3921 21.3958 33.6869 22.2289 33.9149C23.062 34.1431 23.8728 34.2347 24.6614 34.1905H26.5775C26.9661 34.1569 27.2605 34.0345 27.4606 33.8233L27.5269 33.7397C27.5715 33.6733 27.6132 33.5701 27.6517 33.4313C27.6907 33.2923 27.7101 33.1391 27.7101 32.9725C27.6987 32.4942 27.735 32.0632 27.8181 31.6794C27.9012 31.2958 27.9958 31.0065 28.1017 30.8117C28.2075 30.6171 28.3269 30.4528 28.4598 30.3197C28.5929 30.1863 28.6878 30.1054 28.7435 30.0776C28.7988 30.0496 28.843 30.0306 28.8763 30.0192C29.1429 29.9303 29.4566 30.0164 29.8179 30.2781C30.179 30.5395 30.5176 30.8623 30.8344 31.246C31.151 31.6299 31.5313 32.0608 31.9755 32.539C32.42 33.0175 32.8087 33.3731 33.1418 33.6071L33.4749 33.8073C33.6973 33.9409 33.9861 34.0633 34.3416 34.1745C34.6965 34.2857 35.0074 34.3135 35.2744 34.2579L39.5395 34.1913C39.9613 34.1913 40.2896 34.1213 40.5224 33.9825C40.7557 33.8435 40.8943 33.6903 40.939 33.5237C40.9836 33.3569 40.986 33.1676 40.9475 32.956C40.908 32.745 40.869 32.5974 40.8303 32.514Z" fill="#436EAB"/>
<rect x="0.5" y="0.5" width="49" height="49" rx="12.5" stroke="black" stroke-opacity="0.04"/>
</svg>
