<svg width="48" height="48" viewBox="0 0 48 48" fill="none" xmlns="http://www.w3.org/2000/svg">
<rect width="48" height="48" rx="12" fill="#F6F6F6"/>
<path d="M39.8303 31.514C39.7915 31.4304 39.7554 31.361 39.7219 31.3054C39.1667 30.3039 38.1057 29.0747 36.5396 27.6173L36.5065 27.584L36.4899 27.5676L36.4732 27.5508H36.4564C35.7456 26.8722 35.2955 26.4159 35.107 26.1823C34.7621 25.7373 34.6849 25.2868 34.8734 24.8304C35.0065 24.4856 35.5068 23.7574 36.3729 22.6447C36.8285 22.055 37.1893 21.5824 37.4557 21.2264C39.3774 18.6676 40.2106 17.0325 39.955 16.3205L39.8557 16.1541C39.789 16.0539 39.6169 15.9622 39.3395 15.8787C39.0615 15.7953 38.7062 15.7815 38.2729 15.837L33.4746 15.8702C33.3969 15.8427 33.2859 15.8452 33.1413 15.8787C32.9969 15.9121 32.9246 15.9289 32.9246 15.9289L32.8411 15.9707L32.7748 16.0209C32.7193 16.0541 32.6582 16.1124 32.5915 16.1959C32.5251 16.2791 32.4696 16.3767 32.4253 16.4879C31.9029 17.834 31.3089 19.0855 30.6423 20.2424C30.2313 20.9322 29.8539 21.5301 29.5092 22.0363C29.1649 22.5423 28.8761 22.9151 28.6431 23.1541C28.4096 23.3933 28.199 23.585 28.0098 23.7298C27.8209 23.8746 27.6767 23.9358 27.5768 23.9134C27.4768 23.891 27.3825 23.8688 27.2933 23.8466C27.1379 23.7464 27.0129 23.6102 26.9186 23.4378C26.824 23.2654 26.7603 23.0483 26.7269 22.7869C26.6938 22.5253 26.6742 22.3003 26.6686 22.1111C26.6634 21.9221 26.6658 21.6549 26.677 21.31C26.6886 20.965 26.6938 20.7316 26.6938 20.6092C26.6938 20.1864 26.702 19.7275 26.7185 19.2325C26.7353 18.7374 26.7489 18.3452 26.7603 18.0563C26.7716 17.767 26.7769 17.461 26.7769 17.1384C26.7769 16.8157 26.7573 16.5627 26.7185 16.3791C26.6803 16.1957 26.6215 16.0176 26.544 15.8451C26.4661 15.6726 26.3521 15.5393 26.2025 15.4446C26.0526 15.35 25.8662 15.275 25.6444 15.2192C25.0556 15.0858 24.3059 15.0136 23.3949 15.0024C21.3291 14.9802 20.0017 15.1138 19.413 15.403C19.1797 15.5252 18.9686 15.6922 18.7799 15.9034C18.5799 16.1483 18.552 16.2819 18.6964 16.3039C19.3629 16.4039 19.8348 16.6431 20.1125 17.0213L20.2126 17.2217C20.2905 17.3663 20.3682 17.6223 20.446 17.9893C20.5236 18.3564 20.5738 18.7624 20.5958 19.2072C20.6513 20.0194 20.6513 20.7147 20.5958 21.2931C20.5402 21.8717 20.4877 22.3221 20.4376 22.6448C20.3874 22.9674 20.3125 23.2288 20.2126 23.429C20.1125 23.6292 20.0459 23.7516 20.0126 23.796C19.9792 23.8405 19.9515 23.8685 19.9294 23.8794C19.785 23.9349 19.6349 23.9631 19.4795 23.9631C19.3238 23.9631 19.1351 23.8851 18.913 23.7293C18.691 23.5735 18.4605 23.3594 18.2217 23.0869C17.9828 22.8142 17.7135 22.4332 17.4135 21.9438C17.1137 21.4543 16.8026 20.8759 16.4805 20.2084L16.214 19.7244C16.0474 19.413 15.8198 18.9595 15.531 18.3645C15.242 17.7692 14.9866 17.1934 14.7646 16.6372C14.6758 16.4036 14.5425 16.2257 14.3648 16.1033L14.2814 16.0531C14.2259 16.0087 14.1369 15.9615 14.0149 15.9113C13.8926 15.8611 13.765 15.8251 13.6316 15.8029L9.06651 15.8361C8.60002 15.8361 8.28349 15.942 8.11683 16.1534L8.05013 16.2534C8.01681 16.3091 8 16.398 8 16.5205C8 16.6428 8.03332 16.7931 8.10002 16.9709C8.76645 18.5396 9.49117 20.0525 10.2742 21.5098C11.0572 22.9671 11.7376 24.141 12.3151 25.0304C12.8926 25.9205 13.4813 26.7606 14.0812 27.5502C14.681 28.3401 15.078 28.8463 15.2723 29.0687C15.4668 29.2915 15.6196 29.458 15.7306 29.5693L16.1472 29.9697C16.4138 30.2367 16.8053 30.5565 17.3218 30.9291C17.8384 31.302 18.4103 31.669 19.0379 32.0308C19.6656 32.3921 20.3958 32.6869 21.2289 32.9149C22.062 33.1431 22.8728 33.2347 23.6614 33.1905H25.5775C25.9661 33.1569 26.2605 33.0345 26.4606 32.8233L26.5269 32.7397C26.5715 32.6733 26.6132 32.5701 26.6517 32.4313C26.6907 32.2923 26.7101 32.1391 26.7101 31.9725C26.6987 31.4942 26.735 31.0632 26.8181 30.6794C26.9012 30.2958 26.9958 30.0065 27.1017 29.8117C27.2075 29.6171 27.3269 29.4528 27.4598 29.3197C27.5929 29.1863 27.6878 29.1054 27.7435 29.0776C27.7988 29.0496 27.843 29.0306 27.8763 29.0192C28.1429 28.9303 28.4566 29.0164 28.8179 29.2781C29.179 29.5395 29.5176 29.8623 29.8344 30.246C30.151 30.6299 30.5313 31.0608 30.9755 31.539C31.42 32.0175 31.8087 32.3731 32.1418 32.6071L32.4749 32.8073C32.6973 32.9409 32.9861 33.0633 33.3416 33.1745C33.6965 33.2857 34.0074 33.3135 34.2744 33.2579L38.5395 33.1913C38.9613 33.1913 39.2896 33.1213 39.5224 32.9825C39.7557 32.8435 39.8943 32.6903 39.939 32.5237C39.9836 32.3569 39.986 32.1676 39.9475 31.956C39.908 31.745 39.869 31.5974 39.8303 31.514Z" fill="#436EAB"/>
</svg>
