<svg width="50" height="42" viewBox="0 0 50 42" fill="none" xmlns="http://www.w3.org/2000/svg">
<rect x="1" y="1" width="48" height="40" rx="8" fill="white"/>
<path d="M36.8727 26.6355C36.8437 26.5728 36.8166 26.5207 36.7914 26.4791C36.375 25.728 35.5793 24.806 34.4047 23.713L34.3799 23.688L34.3675 23.6757L34.3549 23.6631H34.3423C33.8092 23.1541 33.4716 22.8119 33.3303 22.6367C33.0716 22.303 33.0137 21.9651 33.155 21.6228C33.2549 21.3642 33.6301 20.818 34.2797 19.9835C34.6213 19.5413 34.892 19.1868 35.0918 18.9198C36.5331 17.0007 37.1579 15.7744 36.9662 15.2403L36.8918 15.1155C36.8418 15.0404 36.7127 14.9717 36.5046 14.909C36.2961 14.8464 36.0296 14.8361 35.7047 14.8778L32.106 14.9027C32.0477 14.882 31.9644 14.8839 31.856 14.909C31.7477 14.9341 31.6935 14.9467 31.6935 14.9467L31.6308 14.978L31.5811 15.0156C31.5395 15.0405 31.4936 15.0843 31.4436 15.1469C31.3938 15.2093 31.3522 15.2825 31.319 15.3659C30.9272 16.3755 30.4817 17.3141 29.9817 18.1818C29.6735 18.6992 29.3904 19.1476 29.1319 19.5272C28.8737 19.9067 28.6571 20.1864 28.4823 20.3656C28.3072 20.545 28.1492 20.6887 28.0073 20.7973C27.8657 20.9059 27.7575 20.9518 27.6826 20.9351C27.6076 20.9183 27.5369 20.9016 27.47 20.8849C27.3534 20.8098 27.2597 20.7076 27.189 20.5783C27.118 20.449 27.0702 20.2863 27.0452 20.0902C27.0203 19.894 27.0056 19.7252 27.0014 19.5833C26.9975 19.4416 26.9993 19.2411 27.0078 18.9825C27.0164 18.7238 27.0203 18.5487 27.0203 18.4569C27.0203 18.1398 27.0265 17.7956 27.0389 17.4244C27.0515 17.0531 27.0617 16.7589 27.0702 16.5422C27.0787 16.3253 27.0827 16.0957 27.0827 15.8538C27.0827 15.6118 27.068 15.422 27.0389 15.2843C27.0102 15.1468 26.9661 15.0132 26.908 14.8838C26.8496 14.7545 26.7641 14.6544 26.6519 14.5834C26.5394 14.5125 26.3996 14.4562 26.2333 14.4144C25.7917 14.3143 25.2294 14.2602 24.5462 14.2518C22.9968 14.2351 22.0012 14.3353 21.5597 14.5523C21.3848 14.6439 21.2265 14.7692 21.0849 14.9276C20.9349 15.1112 20.914 15.2114 21.0223 15.2279C21.5222 15.3029 21.8761 15.4823 22.0844 15.766L22.1595 15.9163C22.2178 16.0247 22.2761 16.2167 22.3345 16.492C22.3927 16.7673 22.4303 17.0718 22.4469 17.4054C22.4885 18.0146 22.4885 18.536 22.4469 18.9698C22.4052 19.4038 22.3658 19.7416 22.3282 19.9836C22.2906 20.2255 22.2344 20.4216 22.1595 20.5718C22.0844 20.7219 22.0345 20.8137 22.0094 20.847C21.9844 20.8803 21.9636 20.9013 21.9471 20.9096C21.8388 20.9511 21.7262 20.9723 21.6096 20.9723C21.4929 20.9723 21.3513 20.9138 21.1848 20.797C21.0182 20.6801 20.8454 20.5196 20.6663 20.3151C20.4871 20.1107 20.2851 19.8249 20.0601 19.4578C19.8353 19.0907 19.602 18.6569 19.3604 18.1563L19.1605 17.7933C19.0355 17.5597 18.8649 17.2197 18.6483 16.7734C18.4315 16.3269 18.24 15.8951 18.0734 15.4779C18.0068 15.3027 17.9068 15.1693 17.7736 15.0775L17.711 15.0398C17.6695 15.0065 17.6027 14.9712 17.5111 14.9335C17.4195 14.8958 17.3238 14.8688 17.2237 14.8522L13.7999 14.8771C13.45 14.8771 13.2126 14.9565 13.0876 15.115L13.0376 15.19C13.0126 15.2318 13 15.2985 13 15.3903C13 15.4821 13.025 15.5948 13.075 15.7282C13.5748 16.9047 14.1184 18.0394 14.7056 19.1323C15.2929 20.2253 15.8032 21.1057 16.2363 21.7728C16.6695 22.4404 17.111 23.0704 17.5609 23.6626C18.0107 24.2551 18.3085 24.6347 18.4542 24.8015C18.6001 24.9686 18.7147 25.0935 18.798 25.1769L19.1104 25.4773C19.3104 25.6775 19.6039 25.9174 19.9913 26.1968C20.3788 26.4765 20.8078 26.7518 21.2784 27.0231C21.7492 27.2941 22.2968 27.5152 22.9217 27.6862C23.5465 27.8574 24.1546 27.926 24.7461 27.8929H26.1831C26.4746 27.8677 26.6954 27.7759 26.8455 27.6175L26.8952 27.5548C26.9286 27.505 26.9599 27.4276 26.9888 27.3235C27.018 27.2192 27.0326 27.1043 27.0326 26.9793C27.024 26.6206 27.0513 26.2974 27.1136 26.0095C27.1759 25.7218 27.2469 25.5049 27.3263 25.3588C27.4056 25.2128 27.4952 25.0896 27.5948 24.9898C27.6947 24.8897 27.7659 24.8291 27.8076 24.8082C27.8491 24.7872 27.8822 24.773 27.9072 24.7644C28.1072 24.6977 28.3425 24.7623 28.6135 24.9586C28.8842 25.1546 29.1382 25.3967 29.3758 25.6845C29.6132 25.9725 29.8985 26.2956 30.2317 26.6543C30.565 27.0131 30.8565 27.2798 31.1063 27.4553L31.3562 27.6055C31.523 27.7057 31.7396 27.7975 32.0062 27.8809C32.2724 27.9643 32.5056 27.9851 32.7058 27.9434L35.9046 27.8935C36.221 27.8935 36.4672 27.841 36.6418 27.7369C36.8168 27.6326 36.9207 27.5177 36.9543 27.3928C36.9877 27.2676 36.9895 27.1257 36.9606 26.967C36.931 26.8087 36.9018 26.6981 36.8727 26.6355Z" fill="#436EAB"/>
<rect x="0.5" y="0.5" width="49" height="41" rx="8.5" stroke="black" stroke-opacity="0.04"/>
</svg>
