<svg width="48" height="40" viewBox="0 0 48 40" fill="none" xmlns="http://www.w3.org/2000/svg">
<rect width="48" height="40" rx="8" fill="#F6F6F6"/>
<path d="M35.8727 25.6355C35.8437 25.5728 35.8166 25.5207 35.7914 25.4791C35.375 24.728 34.5793 23.806 33.4047 22.713L33.3799 22.688L33.3675 22.6757L33.3549 22.6631H33.3423C32.8092 22.1541 32.4716 21.8119 32.3303 21.6367C32.0716 21.303 32.0137 20.9651 32.155 20.6228C32.2549 20.3642 32.6301 19.818 33.2797 18.9835C33.6213 18.5413 33.892 18.1868 34.0918 17.9198C35.5331 16.0007 36.1579 14.7744 35.9662 14.2403L35.8918 14.1155C35.8418 14.0404 35.7127 13.9717 35.5046 13.909C35.2961 13.8464 35.0296 13.8361 34.7047 13.8778L31.106 13.9027C31.0477 13.882 30.9644 13.8839 30.856 13.909C30.7477 13.9341 30.6935 13.9467 30.6935 13.9467L30.6308 13.978L30.5811 14.0156C30.5395 14.0405 30.4936 14.0843 30.4436 14.1469C30.3938 14.2093 30.3522 14.2825 30.319 14.3659C29.9272 15.3755 29.4817 16.3141 28.9817 17.1818C28.6735 17.6992 28.3904 18.1476 28.1319 18.5272C27.8737 18.9067 27.6571 19.1864 27.4823 19.3656C27.3072 19.545 27.1492 19.6887 27.0073 19.7973C26.8657 19.9059 26.7575 19.9518 26.6826 19.9351C26.6076 19.9183 26.5369 19.9016 26.47 19.8849C26.3534 19.8098 26.2597 19.7076 26.189 19.5783C26.118 19.449 26.0702 19.2863 26.0452 19.0902C26.0203 18.894 26.0056 18.7252 26.0014 18.5833C25.9975 18.4416 25.9993 18.2411 26.0078 17.9825C26.0164 17.7238 26.0203 17.5487 26.0203 17.4569C26.0203 17.1398 26.0265 16.7956 26.0389 16.4244C26.0515 16.0531 26.0617 15.7589 26.0702 15.5422C26.0787 15.3253 26.0827 15.0957 26.0827 14.8538C26.0827 14.6118 26.068 14.422 26.0389 14.2843C26.0102 14.1468 25.9661 14.0132 25.908 13.8838C25.8496 13.7545 25.7641 13.6544 25.6519 13.5834C25.5394 13.5125 25.3996 13.4562 25.2333 13.4144C24.7917 13.3143 24.2294 13.2602 23.5462 13.2518C21.9968 13.2351 21.0012 13.3353 20.5597 13.5523C20.3848 13.6439 20.2265 13.7692 20.0849 13.9276C19.9349 14.1112 19.914 14.2114 20.0223 14.2279C20.5222 14.3029 20.8761 14.4823 21.0844 14.766L21.1595 14.9163C21.2178 15.0247 21.2761 15.2167 21.3345 15.492C21.3927 15.7673 21.4303 16.0718 21.4469 16.4054C21.4885 17.0146 21.4885 17.536 21.4469 17.9698C21.4052 18.4038 21.3658 18.7416 21.3282 18.9836C21.2906 19.2255 21.2344 19.4216 21.1595 19.5718C21.0844 19.7219 21.0345 19.8137 21.0094 19.847C20.9844 19.8803 20.9636 19.9013 20.9471 19.9096C20.8388 19.9511 20.7262 19.9723 20.6096 19.9723C20.4929 19.9723 20.3513 19.9138 20.1848 19.797C20.0182 19.6801 19.8454 19.5196 19.6663 19.3151C19.4871 19.1107 19.2851 18.8249 19.0601 18.4578C18.8353 18.0907 18.602 17.6569 18.3604 17.1563L18.1605 16.7933C18.0355 16.5597 17.8649 16.2197 17.6483 15.7734C17.4315 15.3269 17.24 14.8951 17.0734 14.4779C17.0068 14.3027 16.9068 14.1693 16.7736 14.0775L16.711 14.0398C16.6695 14.0065 16.6027 13.9712 16.5111 13.9335C16.4195 13.8958 16.3238 13.8688 16.2237 13.8522L12.7999 13.8771C12.45 13.8771 12.2126 13.9565 12.0876 14.115L12.0376 14.19C12.0126 14.2318 12 14.2985 12 14.3903C12 14.4821 12.025 14.5948 12.075 14.7282C12.5748 15.9047 13.1184 17.0394 13.7056 18.1323C14.2929 19.2253 14.8032 20.1057 15.2363 20.7728C15.6695 21.4404 16.111 22.0704 16.5609 22.6626C17.0107 23.2551 17.3085 23.6347 17.4542 23.8015C17.6001 23.9686 17.7147 24.0935 17.798 24.1769L18.1104 24.4773C18.3104 24.6775 18.6039 24.9174 18.9913 25.1968C19.3788 25.4765 19.8078 25.7518 20.2784 26.0231C20.7492 26.2941 21.2968 26.5152 21.9217 26.6862C22.5465 26.8574 23.1546 26.926 23.7461 26.8929H25.1831C25.4746 26.8677 25.6954 26.7759 25.8455 26.6175L25.8952 26.5548C25.9286 26.505 25.9599 26.4276 25.9888 26.3235C26.018 26.2192 26.0326 26.1043 26.0326 25.9793C26.024 25.6206 26.0513 25.2974 26.1136 25.0095C26.1759 24.7218 26.2469 24.5049 26.3263 24.3588C26.4056 24.2128 26.4952 24.0896 26.5948 23.9898C26.6947 23.8897 26.7659 23.8291 26.8076 23.8082C26.8491 23.7872 26.8822 23.773 26.9072 23.7644C27.1072 23.6977 27.3425 23.7623 27.6135 23.9586C27.8842 24.1546 28.1382 24.3967 28.3758 24.6845C28.6132 24.9725 28.8985 25.2956 29.2317 25.6543C29.565 26.0131 29.8565 26.2798 30.1063 26.4553L30.3562 26.6055C30.523 26.7057 30.7396 26.7975 31.0062 26.8809C31.2724 26.9643 31.5056 26.9851 31.7058 26.9434L34.9046 26.8935C35.221 26.8935 35.4672 26.841 35.6418 26.7369C35.8168 26.6326 35.9207 26.5177 35.9543 26.3928C35.9877 26.2676 35.9895 26.1257 35.9606 25.967C35.931 25.8087 35.9018 25.6981 35.8727 25.6355Z" fill="#436EAB"/>
</svg>
