<svg width="50" height="50" viewBox="0 0 50 50" fill="none" xmlns="http://www.w3.org/2000/svg">
<rect x="1" y="1" width="48" height="48" rx="12" fill="white"/>
<path d="M23.5244 30.6623C21.2006 30.4343 19.1053 29.8958 17.3114 28.5759C17.0888 28.4116 16.859 28.2533 16.6559 28.0699C15.8707 27.3604 15.7915 26.5479 16.4129 25.7105C16.9444 24.994 17.8366 24.8023 18.764 25.2137C18.9436 25.2935 19.1147 25.393 19.2786 25.4999C22.6218 27.6611 27.2146 27.7208 30.5704 25.5971C30.9029 25.3573 31.2583 25.1617 31.6702 25.0619C32.4711 24.8684 33.218 25.1452 33.6478 25.8045C34.1388 26.5573 34.1325 27.2922 33.5275 27.8767C32.5995 28.7729 31.4834 29.4212 30.2433 29.8737C29.0707 30.3014 27.7863 30.5167 26.5151 30.6597C26.707 30.8561 26.7974 30.9527 26.9173 31.0661C28.6434 32.6977 30.377 34.3225 32.0975 35.9591C32.6836 36.5168 32.8061 37.2082 32.4833 37.8568C32.1304 38.5657 31.3405 39.0321 30.566 38.9822C30.0753 38.9503 29.6926 38.7205 29.3526 38.3982C28.05 37.1651 26.723 35.9547 25.4468 34.6982C25.0754 34.3328 24.8967 34.4019 24.569 34.7192C23.2585 35.9883 21.9268 37.238 20.5871 38.4806C19.9856 39.0386 19.2698 39.139 18.5722 38.8203C17.8307 38.4821 17.3588 37.77 17.3952 37.0543C17.4203 36.5702 17.6734 36.2004 18.0266 35.8687C19.7348 34.264 21.4382 32.6551 23.1424 31.0478C23.2551 30.9408 23.3602 30.8274 23.5244 30.6623Z" fill="#EE8208"/>
<path d="M24.9413 25C20.564 24.986 16.9746 21.5884 17.0001 17.4834C17.0253 13.3331 20.617 9.98855 25.0375 10C29.4669 10.0112 33.0221 13.4039 32.9999 17.5973C32.9774 21.6939 29.3631 25.0142 24.9413 25ZM28.9196 17.4933C28.9119 15.4551 27.1782 13.8325 25.0057 13.8306C22.8148 13.8285 21.0655 15.4806 21.0825 17.5374C21.0987 19.5678 22.8473 21.179 25.0259 21.1715C27.1978 21.1644 28.9269 19.5312 28.9196 17.4933Z" fill="#EE8208"/>
<rect x="0.5" y="0.5" width="49" height="49" rx="12.5" stroke="black" stroke-opacity="0.04"/>
</svg>
