<svg width="50" height="50" viewBox="0 0 50 50" fill="none" xmlns="http://www.w3.org/2000/svg">
<rect x="1" y="1" width="48" height="48" rx="12" fill="white"/>
<path d="M39 16.6029C37.9694 17.0447 36.8637 17.3442 35.7018 17.478C36.8881 16.7908 37.7962 15.7009 38.2266 14.4062C37.1138 15.0425 35.8855 15.5046 34.5768 15.7551C33.5287 14.6736 32.038 14 30.3845 14C27.2124 14 24.6404 16.4879 24.6404 19.5546C24.6404 19.9895 24.6911 20.4143 24.7891 20.8205C20.016 20.5886 15.7836 18.3766 12.9509 15.0154C12.4557 15.8346 12.174 16.7891 12.174 17.808C12.174 19.7357 13.1888 21.4366 14.7285 22.4317C13.7872 22.4012 12.9019 22.1508 12.1268 21.7344V21.8038C12.1268 24.4948 14.1074 26.7406 16.7336 27.2518C16.2525 27.377 15.7451 27.4464 15.2202 27.4464C14.8493 27.4464 14.4906 27.4109 14.1389 27.3431C14.8702 29.5518 16.9909 31.1579 19.5034 31.2019C17.5385 32.6913 15.061 33.5764 12.37 33.5764C11.9063 33.5764 11.4496 33.5493 11 33.5003C13.5423 35.0793 16.5605 36 19.8044 36C30.3706 36 36.1463 27.5344 36.1463 20.1926L36.1271 19.4734C37.2556 18.6948 38.2319 17.7166 39 16.6029Z" fill="#00ACED"/>
<rect x="0.5" y="0.5" width="49" height="49" rx="12.5" stroke="black" stroke-opacity="0.04"/>
</svg>
