<svg width="24" height="24" viewBox="0 0 24 24" fill="none" xmlns="http://www.w3.org/2000/svg">
<path d="M14.25 2.25C12.8906 2.25 11.6328 2.59375 10.4766 3.28125C9.33594 3.9375 8.4375 4.83594 7.78125 5.97656C7.09375 7.13281 6.75 8.39062 6.75 9.75C6.75 10.6406 6.89844 11.4922 7.19531 12.3047C7.49219 13.1016 7.90625 13.8281 8.4375 14.4844L2.46094 20.4609L3.53906 21.5391L9.51562 15.5625C10.1719 16.0938 10.8984 16.5078 11.6953 16.8047C12.5078 17.1016 13.3594 17.25 14.25 17.25C15.6094 17.25 16.8672 16.9062 18.0234 16.2188C19.1641 15.5625 20.0625 14.6641 20.7188 13.5234C21.4062 12.3672 21.75 11.1094 21.75 9.75C21.75 8.39062 21.4062 7.13281 20.7188 5.97656C20.0625 4.83594 19.1641 3.9375 18.0234 3.28125C16.8672 2.59375 15.6094 2.25 14.25 2.25ZM14.25 3.75C15.3438 3.75 16.3438 4.02344 17.25 4.57031C18.1719 5.10156 18.8984 5.82812 19.4297 6.75C19.9766 7.65625 20.25 8.65625 20.25 9.75C20.25 10.8438 19.9766 11.8516 19.4297 12.7734C18.8984 13.6797 18.1719 14.4062 17.25 14.9531C16.3438 15.4844 15.3438 15.75 14.25 15.75C13.1562 15.75 12.1484 15.4844 11.2266 14.9531C10.3203 14.4062 9.59375 13.6797 9.04688 12.7734C8.51562 11.8516 8.25 10.8438 8.25 9.75C8.25 8.65625 8.51562 7.65625 9.04688 6.75C9.59375 5.82812 10.3203 5.10156 11.2266 4.57031C12.1484 4.02344 13.1562 3.75 14.25 3.75Z" fill="#121212"/>
</svg>
