<svg width="48" height="48" viewBox="0 0 48 48" fill="none" xmlns="http://www.w3.org/2000/svg">
<path d="M26.25 14.25C24.8906 14.25 23.6328 14.5938 22.4766 15.2812C21.3359 15.9375 20.4375 16.8359 19.7812 17.9766C19.0938 19.1328 18.75 20.3906 18.75 21.75C18.75 22.6406 18.8984 23.4922 19.1953 24.3047C19.4922 25.1016 19.9062 25.8281 20.4375 26.4844L14.4609 32.4609L15.5391 33.5391L21.5156 27.5625C22.1719 28.0938 22.8984 28.5078 23.6953 28.8047C24.5078 29.1016 25.3594 29.25 26.25 29.25C27.6094 29.25 28.8672 28.9062 30.0234 28.2188C31.1641 27.5625 32.0625 26.6641 32.7188 25.5234C33.4062 24.3672 33.75 23.1094 33.75 21.75C33.75 20.3906 33.4062 19.1328 32.7188 17.9766C32.0625 16.8359 31.1641 15.9375 30.0234 15.2812C28.8672 14.5938 27.6094 14.25 26.25 14.25ZM26.25 15.75C27.3438 15.75 28.3438 16.0234 29.25 16.5703C30.1719 17.1016 30.8984 17.8281 31.4297 18.75C31.9766 19.6562 32.25 20.6562 32.25 21.75C32.25 22.8438 31.9766 23.8516 31.4297 24.7734C30.8984 25.6797 30.1719 26.4062 29.25 26.9531C28.3438 27.4844 27.3438 27.75 26.25 27.75C25.1562 27.75 24.1484 27.4844 23.2266 26.9531C22.3203 26.4062 21.5938 25.6797 21.0469 24.7734C20.5156 23.8516 20.25 22.8438 20.25 21.75C20.25 20.6562 20.5156 19.6562 21.0469 18.75C21.5938 17.8281 22.3203 17.1016 23.2266 16.5703C24.1484 16.0234 25.1562 15.75 26.25 15.75Z" fill="#121212"/>
</svg>
