<svg width="24" height="24" viewBox="0 0 24 24" fill="none" xmlns="http://www.w3.org/2000/svg">
<path d="M10.9453 3L10.7109 3.21094L2.46094 11.4609L1.94531 12L2.46094 12.5391L9.21094 19.2891L9.75 19.8047L10.2891 19.2891L18.5391 11.0391L18.75 10.8047V3H10.9453ZM11.5781 4.5H17.25V10.1719L9.75 17.6719L4.07812 12L11.5781 4.5ZM19.5 5.25V6.75H20.25V12.8672L13.125 19.9453L12.1875 19.0078L11.1328 20.0625L12.5859 21.5391L13.125 22.0547L21.5391 13.7344L21.75 13.5V5.25H19.5ZM15 6C14.7969 6 14.6172 6.07812 14.4609 6.23438C14.3203 6.375 14.25 6.54688 14.25 6.75C14.25 6.95312 14.3203 7.13281 14.4609 7.28906C14.6172 7.42969 14.7969 7.5 15 7.5C15.2031 7.5 15.375 7.42969 15.5156 7.28906C15.6719 7.13281 15.75 6.95312 15.75 6.75C15.75 6.54688 15.6719 6.375 15.5156 6.23438C15.375 6.07812 15.2031 6 15 6Z" fill="#121212"/>
</svg>
