<svg width="24" height="24" viewBox="0 0 24 24" fill="none" xmlns="http://www.w3.org/2000/svg">
<path d="M1.8125 4C1.59245 4 1.39779 4.08464 1.22852 4.25391C1.07617 4.40625 1 4.59245 1 4.8125C1 5.03255 1.07617 5.22721 1.22852 5.39648C1.39779 5.54883 1.59245 5.625 1.8125 5.625H3.61523L5.74805 14.1562C5.83268 14.5117 6.01888 14.8079 6.30664 15.0449C6.61133 15.265 6.94987 15.375 7.32227 15.375H17.6406C18.013 15.375 18.3346 15.265 18.6055 15.0449C18.8932 14.8249 19.0879 14.5371 19.1895 14.1816L21.2969 6.4375H6.6875L7.09375 8.0625H19.1895L17.6406 13.75H7.32227L5.18945 5.21875C5.10482 4.86328 4.91016 4.57552 4.60547 4.35547C4.31771 4.11849 3.98763 4 3.61523 4H1.8125Z" fill="#121212"/>
<path d="M9.75 18.5C9.75 19.3284 9.07843 20 8.25 20C7.42157 20 6.75 19.3284 6.75 18.5C6.75 17.6716 7.42157 17 8.25 17C9.07843 17 9.75 17.6716 9.75 18.5Z" fill="#121212"/>
<path d="M17.75 18.5C17.75 19.3284 17.0784 20 16.25 20C15.4216 20 14.75 19.3284 14.75 18.5C14.75 17.6716 15.4216 17 16.25 17C17.0784 17 17.75 17.6716 17.75 18.5Z" fill="#121212"/>
</svg>
